# Blender 4.0.1
# www.blender.org
mtllib monkey_paw.mtl
o cube
v 0.500000 0.921875 0.250000
v 0.390625 0.921875 0.250000
v 0.390625 1.046875 0.250000
v 0.500000 1.046875 0.250000
v 0.500000 0.921875 0.375000
v 0.500000 1.046875 0.375000
v 0.390625 0.921875 0.375000
v 0.390625 1.046875 0.375000
vn -0.0000 -0.0000 -1.0000
vn 1.0000 -0.0000 -0.0000
vn -0.0000 -0.0000 1.0000
vn -1.0000 -0.0000 -0.0000
vn -0.0000 1.0000 -0.0000
vn -0.0000 -1.0000 -0.0000
vt 0.468750 0.343750
vt 0.531250 0.343750
vt 0.531250 0.406250
vt 0.468750 0.406250
vt 0.625000 0.468750
vt 0.687500 0.468750
vt 0.687500 0.531250
vt 0.625000 0.531250
vt 0.625000 0.406250
vt 0.687500 0.406250
vt 0.625000 0.343750
vt 0.687500 0.343750
vt 0.468750 0.281250
vt 0.531250 0.281250
vt 0.593750 0.281250
vt 0.593750 0.343750
s 0
usemtl m_c6914123-e9fc-8118-341e-883db420d0c1
f 1/1/1 2/2/1 3/3/1 4/4/1
f 5/5/2 1/6/2 4/7/2 6/8/2
f 7/9/3 5/10/3 6/6/3 8/5/3
f 2/11/4 7/12/4 8/10/4 3/9/4
f 8/2/5 6/1/5 4/13/5 3/14/5
f 2/15/6 1/14/6 5/2/6 7/16/6
o cube.001
v 0.677237 0.875000 0.520987
v 0.599897 0.875000 0.598326
v 0.599897 1.000000 0.598326
v 0.677237 1.000000 0.520987
v 0.765625 0.875000 0.609375
v 0.765625 1.000000 0.609375
v 0.688285 0.875000 0.686715
v 0.688285 1.000000 0.686715
vn -0.7071 -0.0000 -0.7071
vn 0.7071 -0.0000 -0.7071
vn 0.7071 -0.0000 0.7071
vn -0.7071 -0.0000 0.7071
vn -0.0000 1.0000 -0.0000
vn -0.0000 -1.0000 -0.0000
vt 0.593750 0.281250
vt 0.656250 0.281250
vt 0.656250 0.343750
vt 0.593750 0.343750
vt 0.718750 0.281250
vt 0.718750 0.343750
vt 0.687500 0.843750
vt 0.750000 0.843750
vt 0.750000 0.906250
vt 0.687500 0.906250
vt 0.687500 0.781250
vt 0.750000 0.781250
vt 0.343750 0.312500
vt 0.281250 0.312500
vt 0.281250 0.250000
vt 0.343750 0.250000
vt 0.406250 0.250000
vt 0.406250 0.312500
s 0
usemtl m_c6914123-e9fc-8118-341e-883db420d0c1
f 9/17/7 10/18/7 11/19/7 12/20/7
f 13/18/8 9/21/8 12/22/8 14/19/8
f 15/23/9 13/24/9 14/25/9 16/26/9
f 10/27/10 15/28/10 16/24/10 11/23/10
f 16/29/11 14/30/11 12/31/11 11/32/11
f 10/33/12 9/32/12 13/29/12 15/34/12
o cube.002
v 0.687224 0.957906 0.530973
v 0.609884 0.957906 0.608313
v 0.569071 1.068783 0.567500
v 0.646410 1.068783 0.490160
v 0.765625 1.015625 0.609375
v 0.724812 1.126501 0.568562
v 0.688285 1.015625 0.686715
v 0.647472 1.126501 0.645902
vn -0.6272 -0.4617 -0.6272
vn 0.7071 -0.0000 -0.7071
vn 0.6272 0.4617 0.6272
vn -0.7071 -0.0000 0.7071
vn -0.3265 0.8870 -0.3265
vn 0.3265 -0.8870 0.3265
vt 0.687500 0.468750
vt 0.750000 0.468750
vt 0.750000 0.531250
vt 0.687500 0.531250
vt 0.687500 0.406250
vt 0.750000 0.406250
vt 0.687500 0.343750
vt 0.750000 0.343750
vt 0.718750 0.562500
vt 0.781250 0.562500
vt 0.781250 0.625000
vt 0.718750 0.625000
vt 0.531250 0.281250
vt 0.468750 0.281250
vt 0.468750 0.218750
vt 0.531250 0.218750
vt 0.593750 0.218750
vt 0.593750 0.281250
s 0
usemtl m_c6914123-e9fc-8118-341e-883db420d0c1
f 17/35/13 18/36/13 19/37/13 20/38/13
f 21/39/14 17/40/14 20/36/14 22/35/14
f 23/41/15 21/42/15 22/40/15 24/39/15
f 18/43/16 23/44/16 24/45/16 19/46/16
f 24/47/17 22/48/17 20/49/17 19/50/17
f 18/51/18 17/50/18 21/47/18 23/52/18
o cube.003
v 0.640349 1.067281 0.484098
v 0.563009 1.067281 0.561438
v 0.542602 1.122720 0.541032
v 0.619942 1.122720 0.463692
v 0.718750 1.125000 0.562500
v 0.698343 1.180438 0.542093
v 0.641410 1.125000 0.639840
v 0.621004 1.180438 0.619433
vn -0.6272 -0.4617 -0.6272
vn 0.7071 -0.0000 -0.7071
vn 0.6272 0.4617 0.6272
vn -0.7071 -0.0000 0.7071
vn -0.3265 0.8870 -0.3265
vn 0.3265 -0.8870 0.3265
vt 0.687500 0.750000
vt 0.750000 0.750000
vt 0.750000 0.781250
vt 0.687500 0.781250
vt 0.062500 0.125000
vt 0.125000 0.125000
vt 0.125000 0.156250
vt 0.062500 0.156250
vt 0.187500 0.125000
vt 0.187500 0.156250
vt 0.843750 0.718750
vt 0.906250 0.718750
vt 0.906250 0.750000
vt 0.843750 0.750000
vt 0.656250 0.281250
vt 0.593750 0.281250
vt 0.593750 0.218750
vt 0.656250 0.218750
vt 0.718750 0.218750
vt 0.718750 0.281250
s 0
usemtl m_c6914123-e9fc-8118-341e-883db420d0c1
f 25/53/19 26/54/19 27/55/19 28/56/19
f 29/57/20 25/58/20 28/59/20 30/60/20
f 31/58/21 29/61/21 30/62/21 32/59/21
f 26/63/22 31/64/22 32/65/22 27/66/22
f 32/67/23 30/68/23 28/69/23 27/70/23
f 26/71/24 25/70/24 29/67/24 31/72/24
o cube.004
v 0.656250 0.921875 0.250000
v 0.546875 0.921875 0.250000
v 0.546875 1.046875 0.250000
v 0.656250 1.046875 0.250000
v 0.656250 0.921875 0.375000
v 0.656250 1.046875 0.375000
v 0.546875 0.921875 0.375000
v 0.546875 1.046875 0.375000
vn -0.0000 -0.0000 -1.0000
vn 1.0000 -0.0000 -0.0000
vn -0.0000 -0.0000 1.0000
vn -1.0000 -0.0000 -0.0000
vn -0.0000 1.0000 -0.0000
vn -0.0000 -1.0000 -0.0000
vt 0.718750 0.281250
vt 0.781250 0.281250
vt 0.781250 0.343750
vt 0.718750 0.343750
vt 0.718750 0.218750
vt 0.781250 0.218750
vt 0.750000 0.937500
vt 0.812500 0.937500
vt 0.812500 1.000000
vt 0.750000 1.000000
vt 0.750000 0.875000
vt 0.812500 0.875000
vt 0.750000 0.812500
vt 0.812500 0.812500
vt 0.250000 0.187500
vt 0.187500 0.187500
vt 0.187500 0.250000
vt 0.250000 0.250000
s 0
usemtl m_c6914123-e9fc-8118-341e-883db420d0c1
f 33/73/25 34/74/25 35/75/25 36/76/25
f 37/77/26 33/78/26 36/74/26 38/73/26
f 39/79/27 37/80/27 38/81/27 40/82/27
f 34/83/28 39/84/28 40/80/28 35/79/28
f 40/84/29 38/83/29 36/85/29 35/86/29
f 34/87/30 33/88/30 37/89/30 39/90/30
o cube.005
v 0.343750 0.921875 0.312500
v 0.234375 0.921875 0.312500
v 0.234375 1.046875 0.312500
v 0.343750 1.046875 0.312500
v 0.343750 0.921875 0.437500
v 0.343750 1.046875 0.437500
v 0.234375 0.921875 0.437500
v 0.234375 1.046875 0.437500
vn -0.0000 -0.0000 -1.0000
vn 1.0000 -0.0000 -0.0000
vn -0.0000 -0.0000 1.0000
vn -1.0000 -0.0000 -0.0000
vn -0.0000 1.0000 -0.0000
vn -0.0000 -1.0000 -0.0000
vt 0.750000 0.750000
vt 0.812500 0.750000
vt 0.812500 0.812500
vt 0.750000 0.812500
vt 0.250000 0.187500
vt 0.312500 0.187500
vt 0.312500 0.250000
vt 0.250000 0.250000
vt 0.375000 0.187500
vt 0.375000 0.250000
vt 0.437500 0.187500
vt 0.437500 0.250000
vt 0.812500 0.562500
vt 0.750000 0.562500
vt 0.750000 0.500000
vt 0.812500 0.500000
vt 0.812500 0.437500
vt 0.750000 0.437500
s 0
usemtl m_c6914123-e9fc-8118-341e-883db420d0c1
f 41/91/31 42/92/31 43/93/31 44/94/31
f 45/95/32 41/96/32 44/97/32 46/98/32
f 47/96/33 45/99/33 46/100/33 48/97/33
f 42/99/34 47/101/34 48/102/34 43/100/34
f 48/103/35 46/104/35 44/105/35 43/106/35
f 42/107/36 41/108/36 45/105/36 47/106/36
o cube.006
v 0.343750 1.063602 0.316759
v 0.234375 1.063602 0.316759
v 0.234375 1.184343 0.349112
v 0.343750 1.184343 0.349112
v 0.343750 1.031250 0.437500
v 0.343750 1.151991 0.469852
v 0.234375 1.031250 0.437500
v 0.234375 1.151991 0.469852
vn -0.0000 0.2588 -0.9659
vn 1.0000 -0.0000 -0.0000
vn -0.0000 -0.2588 0.9659
vn -1.0000 -0.0000 -0.0000
vn -0.0000 0.9659 0.2588
vn -0.0000 -0.9659 -0.2588
vt 0.750000 0.375000
vt 0.812500 0.375000
vt 0.812500 0.437500
vt 0.750000 0.437500
vt 0.781250 0.687500
vt 0.843750 0.687500
vt 0.843750 0.750000
vt 0.781250 0.750000
vt 0.781250 0.562500
vt 0.843750 0.562500
vt 0.843750 0.625000
vt 0.781250 0.625000
vt 0.437500 0.156250
vt 0.500000 0.156250
vt 0.500000 0.218750
vt 0.437500 0.218750
vt 0.562500 0.218750
vt 0.562500 0.156250
vt 0.625000 0.156250
vt 0.625000 0.218750
s 0
usemtl m_c6914123-e9fc-8118-341e-883db420d0c1
f 49/109/37 50/110/37 51/111/37 52/112/37
f 53/113/38 49/114/38 52/115/38 54/116/38
f 55/117/39 53/118/39 54/119/39 56/120/39
f 50/121/40 55/122/40 56/123/40 51/124/40
f 56/125/41 54/123/41 52/122/41 51/126/41
f 50/127/42 49/126/42 53/125/42 55/128/42
o cube.007
v 0.343750 1.188602 0.348009
v 0.234375 1.188602 0.348009
v 0.234375 1.248973 0.364185
v 0.343750 1.248973 0.364185
v 0.343750 1.156250 0.468750
v 0.343750 1.216620 0.484926
v 0.234375 1.156250 0.468750
v 0.234375 1.216620 0.484926
vn -0.0000 0.2588 -0.9659
vn 1.0000 -0.0000 -0.0000
vn -0.0000 -0.2588 0.9659
vn -1.0000 -0.0000 -0.0000
vn -0.0000 0.9659 0.2588
vn -0.0000 -0.9659 -0.2588
vt 0.843750 0.687500
vt 0.906250 0.687500
vt 0.906250 0.718750
vt 0.843750 0.718750
vt 0.843750 0.593750
vt 0.906250 0.593750
vt 0.906250 0.625000
vt 0.843750 0.625000
vt 0.843750 0.562500
vt 0.906250 0.562500
vt 0.437500 0.125000
vt 0.500000 0.125000
vt 0.500000 0.156250
vt 0.437500 0.156250
vt 0.687500 0.218750
vt 0.625000 0.218750
vt 0.625000 0.156250
vt 0.687500 0.156250
vt 0.843750 0.312500
vt 0.781250 0.312500
vt 0.781250 0.375000
vt 0.843750 0.375000
s 0
usemtl m_c6914123-e9fc-8118-341e-883db420d0c1
f 57/129/43 58/130/43 59/131/43 60/132/43
f 61/133/44 57/134/44 60/135/44 62/136/44
f 63/137/45 61/138/45 62/134/45 64/133/45
f 58/139/46 63/140/46 64/141/46 59/142/46
f 64/143/47 62/144/47 60/145/47 59/146/47
f 58/147/48 57/148/48 61/149/48 63/150/48
o cube.008
v 0.500000 1.063602 0.254259
v 0.390625 1.063602 0.254259
v 0.390625 1.184343 0.286612
v 0.500000 1.184343 0.286612
v 0.500000 1.031250 0.375000
v 0.500000 1.151991 0.407352
v 0.390625 1.031250 0.375000
v 0.390625 1.151991 0.407352
vn -0.0000 0.2588 -0.9659
vn 1.0000 -0.0000 -0.0000
vn -0.0000 -0.2588 0.9659
vn -1.0000 -0.0000 -0.0000
vn -0.0000 0.9659 0.2588
vn -0.0000 -0.9659 -0.2588
vt 0.687500 0.156250
vt 0.750000 0.156250
vt 0.750000 0.218750
vt 0.687500 0.218750
vt 0.781250 0.250000
vt 0.843750 0.250000
vt 0.843750 0.312500
vt 0.781250 0.312500
vt 0.812500 0.156250
vt 0.812500 0.218750
vt 0.812500 0.937500
vt 0.875000 0.937500
vt 0.875000 1.000000
vt 0.812500 1.000000
vt 0.812500 0.875000
vt 0.875000 0.875000
vt 0.875000 0.812500
vt 0.812500 0.812500
s 0
usemtl m_c6914123-e9fc-8118-341e-883db420d0c1
f 65/151/49 66/152/49 67/153/49 68/154/49
f 69/155/50 65/156/50 68/157/50 70/158/50
f 71/152/51 69/159/51 70/160/51 72/153/51
f 66/161/52 71/162/52 72/163/52 67/164/52
f 72/162/53 70/161/53 68/165/53 67/166/53
f 66/167/54 65/168/54 69/165/54 71/166/54
o cube.009
v 0.500000 1.188602 0.285509
v 0.390625 1.188602 0.285509
v 0.390625 1.248973 0.301685
v 0.500000 1.248973 0.301685
v 0.500000 1.156250 0.406250
v 0.500000 1.216620 0.422426
v 0.390625 1.156250 0.406250
v 0.390625 1.216620 0.422426
vn -0.0000 0.2588 -0.9659
vn 1.0000 -0.0000 -0.0000
vn -0.0000 -0.2588 0.9659
vn -1.0000 -0.0000 -0.0000
vn -0.0000 0.9659 0.2588
vn -0.0000 -0.9659 -0.2588
vt 0.500000 0.125000
vt 0.562500 0.125000
vt 0.562500 0.156250
vt 0.500000 0.156250
vt 0.625000 0.125000
vt 0.625000 0.156250
vt 0.687500 0.125000
vt 0.687500 0.156250
vt 0.843750 0.343750
vt 0.906250 0.343750
vt 0.906250 0.375000
vt 0.843750 0.375000
vt 0.250000 0.187500
vt 0.187500 0.187500
vt 0.187500 0.125000
vt 0.250000 0.125000
vt 0.875000 0.750000
vt 0.812500 0.750000
vt 0.812500 0.812500
vt 0.875000 0.812500
s 0
usemtl m_c6914123-e9fc-8118-341e-883db420d0c1
f 73/169/55 74/170/55 75/171/55 76/172/55
f 77/170/56 73/173/56 76/174/56 78/171/56
f 79/173/57 77/175/57 78/176/57 80/174/57
f 74/177/58 79/178/58 80/179/58 75/180/58
f 80/181/59 78/182/59 76/183/59 75/184/59
f 74/185/60 73/186/60 77/187/60 79/188/60
o cube.010
v 0.656250 1.188602 0.285509
v 0.546875 1.188602 0.285509
v 0.546875 1.248973 0.301685
v 0.656250 1.248973 0.301685
v 0.656250 1.156250 0.406250
v 0.656250 1.216620 0.422426
v 0.546875 1.156250 0.406250
v 0.546875 1.216620 0.422426
vn -0.0000 0.2588 -0.9659
vn 1.0000 -0.0000 -0.0000
vn -0.0000 -0.2588 0.9659
vn -1.0000 -0.0000 -0.0000
vn -0.0000 0.9659 0.2588
vn -0.0000 -0.9659 -0.2588
vt 0.843750 0.312500
vt 0.906250 0.312500
vt 0.906250 0.343750
vt 0.843750 0.343750
vt 0.687500 0.125000
vt 0.750000 0.125000
vt 0.750000 0.156250
vt 0.687500 0.156250
vt 0.843750 0.281250
vt 0.906250 0.281250
vt 0.843750 0.250000
vt 0.906250 0.250000
vt 0.312500 0.187500
vt 0.250000 0.187500
vt 0.250000 0.125000
vt 0.312500 0.125000
vt 0.375000 0.125000
vt 0.375000 0.187500
s 0
usemtl m_c6914123-e9fc-8118-341e-883db420d0c1
f 81/189/61 82/190/61 83/191/61 84/192/61
f 85/193/62 81/194/62 84/195/62 86/196/62
f 87/197/63 85/198/63 86/190/63 88/189/63
f 82/199/64 87/200/64 88/198/64 83/197/64
f 88/201/65 86/202/65 84/203/65 83/204/65
f 82/205/66 81/204/66 85/201/66 87/206/66
o cube.011
v 0.656250 1.063602 0.254259
v 0.546875 1.063602 0.254259
v 0.546875 1.184343 0.286612
v 0.656250 1.184343 0.286612
v 0.656250 1.031250 0.375000
v 0.656250 1.151991 0.407352
v 0.546875 1.031250 0.375000
v 0.546875 1.151991 0.407352
vn -0.0000 0.2588 -0.9659
vn 1.0000 -0.0000 -0.0000
vn -0.0000 -0.2588 0.9659
vn -1.0000 -0.0000 -0.0000
vn -0.0000 0.9659 0.2588
vn -0.0000 -0.9659 -0.2588
vt 0.812500 0.625000
vt 0.875000 0.625000
vt 0.875000 0.687500
vt 0.812500 0.687500
vt 0.375000 0.125000
vt 0.437500 0.125000
vt 0.437500 0.187500
vt 0.375000 0.187500
vt 0.812500 0.500000
vt 0.875000 0.500000
vt 0.875000 0.562500
vt 0.812500 0.562500
vt 0.812500 0.437500
vt 0.875000 0.437500
vt 0.812500 0.375000
vt 0.875000 0.375000
vt 0.875000 0.187500
vt 0.812500 0.187500
vt 0.812500 0.250000
vt 0.875000 0.250000
s 0
usemtl m_c6914123-e9fc-8118-341e-883db420d0c1
f 89/207/67 90/208/67 91/209/67 92/210/67
f 93/211/68 89/212/68 92/213/68 94/214/68
f 95/215/69 93/216/69 94/217/69 96/218/69
f 90/219/70 95/220/70 96/216/70 91/215/70
f 96/220/71 94/219/71 92/221/71 91/222/71
f 90/223/72 89/224/72 93/225/72 95/226/72
o cube.012
v 0.531250 0.062500 0.390625
v 0.437500 0.062500 0.390625
v 0.437500 0.750000 0.390625
v 0.531250 0.750000 0.390625
v 0.531250 0.062500 0.484375
v 0.531250 0.750000 0.484375
v 0.437500 0.062500 0.484375
v 0.437500 0.750000 0.484375
vn -0.0000 -0.0000 -1.0000
vn 1.0000 -0.0000 -0.0000
vn -0.0000 -0.0000 1.0000
vn -1.0000 -0.0000 -0.0000
vn -0.0000 1.0000 -0.0000
vn -0.0000 -1.0000 -0.0000
vt 0.937500 -0.187500
vt 1.062500 -0.187500
vt 1.062500 0.500000
vt 0.937500 0.500000
vt 0.000000 -0.687500
vt 0.125000 -0.687500
vt 0.125000 0.000000
vt 0.000000 0.000000
vt 0.250000 -0.687500
vt 0.250000 0.000000
vt 0.375000 -0.687500
vt 0.375000 0.000000
vt 1.750000 -0.625000
vt 1.625000 -0.625000
vt 1.625000 -0.750000
vt 1.750000 -0.750000
vt 0.125000 -0.812500
vt 0.000000 -0.812500
s 0
usemtl m_ff3b7aa9-96cd-c079-cc68-682a07998ad4
f 97/227/73 98/228/73 99/229/73 100/230/73
f 101/231/74 97/232/74 100/233/74 102/234/74
f 103/232/75 101/235/75 102/236/75 104/233/75
f 98/235/76 103/237/76 104/238/76 99/236/76
f 104/239/77 102/240/77 100/241/77 99/242/77
f 98/243/78 97/244/78 101/231/78 103/232/78
o cube.013
v 0.515625 0.000000 0.406250
v 0.453125 0.000000 0.406250
v 0.453125 0.125000 0.406250
v 0.515625 0.125000 0.406250
v 0.515625 0.000000 0.468750
v 0.515625 0.125000 0.468750
v 0.453125 0.000000 0.468750
v 0.453125 0.125000 0.468750
vn -0.0000 -0.0000 -1.0000
vn 1.0000 -0.0000 -0.0000
vn -0.0000 -0.0000 1.0000
vn -1.0000 -0.0000 -0.0000
vn -0.0000 1.0000 -0.0000
vn -0.0000 -1.0000 -0.0000
vt 0.750000 -0.312500
vt 0.812500 -0.312500
vt 0.812500 -0.187500
vt 0.750000 -0.187500
vt 1.500000 -0.812500
vt 1.562500 -0.812500
vt 1.562500 -0.687500
vt 1.500000 -0.687500
vt 1.625000 -0.812500
vt 1.625000 -0.687500
vt 1.750000 0.875000
vt 1.812500 0.875000
vt 1.812500 1.000000
vt 1.750000 1.000000
vt 1.250000 0.375000
vt 1.187500 0.375000
vt 1.187500 0.312500
vt 1.250000 0.312500
vt 0.812500 -0.375000
vt 0.750000 -0.375000
s 0
usemtl m_ff3b7aa9-96cd-c079-cc68-682a07998ad4
f 105/245/79 106/246/79 107/247/79 108/248/79
f 109/249/80 105/250/80 108/251/80 110/252/80
f 111/250/81 109/253/81 110/254/81 112/251/81
f 106/255/82 111/256/82 112/257/82 107/258/82
f 112/259/83 110/260/83 108/261/83 107/262/83
f 106/263/84 105/264/84 109/245/84 111/246/84
o cube.014
v 0.578125 0.296875 0.328125
v 0.390625 0.296875 0.328125
v 0.390625 0.609375 0.328125
v 0.578125 0.609375 0.328125
v 0.578125 0.296875 0.531250
v 0.578125 0.609375 0.531250
v 0.390625 0.296875 0.531250
v 0.390625 0.609375 0.531250
vn -0.0000 -0.0000 -1.0000
vn 1.0000 -0.0000 -0.0000
vn -0.0000 -0.0000 1.0000
vn -1.0000 -0.0000 -0.0000
vn -0.0000 1.0000 -0.0000
vn -0.0000 -1.0000 -0.0000
vt 0.531250 0.500000
vt 0.625000 0.500000
vt 0.625000 0.656250
vt 0.531250 0.656250
vt 0.531250 0.343750
vt 0.625000 0.343750
vt 0.593750 0.750000
vt 0.687500 0.750000
vt 0.687500 0.906250
vt 0.593750 0.906250
vt 0.187500 0.250000
vt 0.281250 0.250000
vt 0.281250 0.406250
vt 0.187500 0.406250
vt 0.375000 0.406250
vt 0.281250 0.312500
vt 0.375000 0.312500
vt 0.718750 0.531250
vt 0.625000 0.531250
vt 0.625000 0.625000
vt 0.718750 0.625000
s 0
usemtl m_43859887-9836-40d8-86be-a51323aa0e1a
f 113/265/85 114/266/85 115/267/85 116/268/85
f 117/269/86 113/270/86 116/266/86 118/265/86
f 119/271/87 117/272/87 118/273/87 120/274/87
f 114/275/88 119/276/88 120/277/88 115/278/88
f 120/279/89 118/277/89 116/280/89 115/281/89
f 114/282/90 113/283/90 117/284/90 119/285/90
o cube.015
v 0.656250 0.421875 0.281250
v 0.250000 0.421875 0.281250
v 0.250000 0.796875 0.281250
v 0.656250 0.796875 0.281250
v 0.656250 0.421875 0.468750
v 0.656250 0.796875 0.468750
v 0.250000 0.421875 0.468750
v 0.250000 0.796875 0.468750
vn -0.0000 -0.0000 -1.0000
vn 1.0000 -0.0000 -0.0000
vn -0.0000 -0.0000 1.0000
vn -1.0000 -0.0000 -0.0000
vn -0.0000 1.0000 -0.0000
vn -0.0000 -1.0000 -0.0000
vt 0.000000 0.750000
vt 0.218750 0.750000
vt 0.218750 1.000000
vt 0.000000 1.000000
vt 0.375000 0.500000
vt 0.468750 0.500000
vt 0.468750 0.750000
vt 0.375000 0.750000
vt 0.437500 0.750000
vt 0.437500 1.000000
vt 0.531250 0.750000
vt 0.531250 1.000000
vt 0.406250 0.500000
vt 0.187500 0.500000
vt 0.187500 0.406250
vt 0.406250 0.406250
vt 0.750000 0.906250
vt 0.531250 0.906250
vt 0.750000 1.000000
s 0
usemtl m_43859887-9836-40d8-86be-a51323aa0e1a
f 121/286/91 122/287/91 123/288/91 124/289/91
f 125/290/92 121/291/92 124/292/92 126/293/92
f 127/287/93 125/294/93 126/295/93 128/288/93
f 122/294/94 127/296/94 128/297/94 123/295/94
f 128/298/95 126/299/95 124/300/95 123/301/95
f 122/302/96 121/303/96 125/297/96 127/304/96
o cube.016
v 0.656250 0.796875 0.281250
v 0.250000 0.796875 0.281250
v 0.250000 0.921875 0.281250
v 0.656250 0.921875 0.281250
v 0.656250 0.796875 0.468750
v 0.656250 0.921875 0.468750
v 0.250000 0.796875 0.468750
v 0.250000 0.921875 0.468750
vn -0.0000 -0.0000 -1.0000
vn 1.0000 -0.0000 -0.0000
vn -0.0000 -0.0000 1.0000
vn -1.0000 -0.0000 -0.0000
vn -0.0000 1.0000 -0.0000
vn -0.0000 -1.0000 -0.0000
vt 0.000000 0.937500
vt 0.203125 0.937500
vt 0.203125 1.000000
vt 0.000000 1.000000
vt 0.093750 0.937500
vt 0.093750 1.000000
vt 0.000000 0.906250
vt 0.203125 0.906250
s 0
usemtl m_c6914123-e9fc-8118-341e-883db420d0c1
f 129/305/97 130/306/97 131/307/97 132/308/97
f 133/305/98 129/309/98 132/310/98 134/308/98
f 135/305/99 133/306/99 134/307/99 136/308/99
f 130/305/100 135/309/100 136/310/100 131/308/100
f 136/311/101 134/312/101 132/307/101 131/308/101
f 130/311/102 129/312/102 133/307/102 135/308/102
o cube.017
v 0.671875 0.375000 0.418750
v 0.281250 0.375000 0.418750
v 0.281250 0.750000 0.418750
v 0.671875 0.750000 0.418750
v 0.671875 0.375000 0.606250
v 0.671875 0.750000 0.606250
v 0.281250 0.375000 0.606250
v 0.281250 0.750000 0.606250
vn -0.0000 -0.0000 -1.0000
vn 1.0000 -0.0000 -0.0000
vn -0.0000 -0.0000 1.0000
vn -1.0000 -0.0000 -0.0000
vn -0.0000 1.0000 -0.0000
vn -0.0000 -1.0000 -0.0000
vt 0.000000 0.500000
vt 0.187500 0.500000
vt 0.187500 0.750000
vt 0.000000 0.750000
vt 0.406250 0.250000
vt 0.468750 0.250000
vt 0.468750 0.500000
vt 0.406250 0.500000
vt 0.375000 0.500000
vt 0.375000 0.750000
vt 0.531250 0.656250
vt 0.593750 0.656250
vt 0.593750 0.906250
vt 0.531250 0.906250
vt 0.781250 0.750000
vt 0.593750 0.750000
vt 0.593750 0.687500
vt 0.781250 0.687500
vt 0.812500 0.625000
vt 0.625000 0.625000
vt 0.625000 0.687500
vt 0.812500 0.687500
s 0
usemtl m_43859887-9836-40d8-86be-a51323aa0e1a
f 137/313/103 138/314/103 139/315/103 140/316/103
f 141/317/104 137/318/104 140/319/104 142/320/104
f 143/314/105 141/321/105 142/322/105 144/315/105
f 138/323/106 143/324/106 144/325/106 139/326/106
f 144/327/107 142/328/107 140/329/107 139/330/107
f 138/331/108 137/332/108 141/333/108 143/334/108
o cube.018
v 0.671875 0.750000 0.418750
v 0.281250 0.750000 0.418750
v 0.281250 0.875000 0.418750
v 0.671875 0.875000 0.418750
v 0.671875 0.750000 0.606250
v 0.671875 0.875000 0.606250
v 0.281250 0.750000 0.606250
v 0.281250 0.875000 0.606250
vn -0.0000 -0.0000 -1.0000
vn 1.0000 -0.0000 -0.0000
vn -0.0000 -0.0000 1.0000
vn -1.0000 -0.0000 -0.0000
vn -0.0000 1.0000 -0.0000
vn -0.0000 -1.0000 -0.0000
vt 0.000000 0.937500
vt 0.195312 0.937500
vt 0.195312 1.000000
vt 0.000000 1.000000
vt 0.093750 0.937500
vt 0.093750 1.000000
vt 0.000000 0.906250
vt 0.195312 0.906250
s 0
usemtl m_c6914123-e9fc-8118-341e-883db420d0c1
f 145/335/109 146/336/109 147/337/109 148/338/109
f 149/335/110 145/339/110 148/340/110 150/338/110
f 151/335/111 149/336/111 150/337/111 152/338/111
f 146/335/112 151/339/112 152/340/112 147/338/112
f 152/341/113 150/342/113 148/337/113 147/338/113
f 146/341/114 145/342/114 149/337/114 151/338/114
