# Made in Blockbench 4.11.2
mtllib port.mtl

o Cube
v 0.6875 0 0.3125
v 0.3125 0 0.3125
v 0.3125 0.125 0.3125
v 0.6875 0.125 0.3125
v 0.6875 0 0.6875
v 0.6875 0.125 0.6875
v 0.3125 0 0.6875
v 0.3125 0.125 0.6875
vt 0.625 0.125
vt 1 0.125
vt 1 0.25
vt 0.625 0.25
vt 0.625 0.125
vt 1 0.125
vt 1 0.25
vt 0.625 0.25
vt 0.625 0.125
vt 1 0.125
vt 1 0.25
vt 0.625 0.25
vt 0.625 0.125
vt 1 0.125
vt 1 0.25
vt 0.625 0.25
vt 0.625 0.125
vt 1 0.125
vt 1 0.5
vt 0.625 0.5
vt 0.625 0.125
vt 1 0.125
vt 1 0.5
vt 0.625 0.5
vn 0 0 -1
vn 1 0 0
vn 0 0 1
vn -1 0 0
vn 0 1 0
vn 0 -1 0
usemtl m_4f8a4499-0a0c-c97f-1feb-5a3b6321c0ea
f 1/1/1 2/2/1 3/3/1 4/4/1
f 5/5/2 1/6/2 4/7/2 6/8/2
f 7/9/3 5/10/3 6/11/3 8/12/3
f 2/13/4 7/14/4 8/15/4 3/16/4
f 8/17/5 6/18/5 4/19/5 3/20/5
f 2/21/6 1/22/6 5/23/6 7/24/6
o Cube.001
v 0.6875 0.25 0.3125
v 0.3125 0.25 0.3125
v 0.3125 0.375 0.3125
v 0.6875 0.375 0.3125
v 0.6875 0.25 0.6875
v 0.6875 0.375 0.6875
v 0.3125 0.25 0.6875
v 0.3125 0.375 0.6875
vt 0.625 0.125
vt 1 0.125
vt 1 0.25
vt 0.625 0.25
vt 0.625 0.125
vt 1 0.125
vt 1 0.25
vt 0.625 0.25
vt 0.625 0.125
vt 1 0.125
vt 1 0.25
vt 0.625 0.25
vt 0.625 0.125
vt 1 0.125
vt 1 0.25
vt 0.625 0.25
vt 0.625 0.125
vt 1 0.125
vt 1 0.5
vt 0.625 0.5
vt 0.625 0.125
vt 1 0.125
vt 1 0.5
vt 0.625 0.5
vn 0 0 -1
vn 1 0 0
vn 0 0 1
vn -1 0 0
vn 0 1 0
vn 0 -1 0
usemtl m_4f8a4499-0a0c-c97f-1feb-5a3b6321c0ea
f 9/25/7 10/26/7 11/27/7 12/28/7
f 13/29/8 9/30/8 12/31/8 14/32/8
f 15/33/9 13/34/9 14/35/9 16/36/9
f 10/37/10 15/38/10 16/39/10 11/40/10
f 16/41/11 14/42/11 12/43/11 11/44/11
f 10/45/12 9/46/12 13/47/12 15/48/12
o Cube.002
v 0.625 0.125 0.375
v 0.375 0.125 0.375
v 0.375 0.25 0.375
v 0.625 0.25 0.375
v 0.625 0.125 0.625
v 0.625 0.25 0.625
v 0.375 0.125 0.625
v 0.375 0.25 0.625
vt 0.6875 0
vt 0.9375 0
vt 0.9375 0.125
vt 0.6875 0.125
vt 0.6875 0
vt 0.9375 0
vt 0.9375 0.125
vt 0.6875 0.125
vt 0.6875 0
vt 0.9375 0
vt 0.9375 0.125
vt 0.6875 0.125
vt 0.6875 0
vt 0.9375 0
vt 0.9375 0.125
vt 0.6875 0.125
vn 0 0 -1
vn 1 0 0
vn 0 0 1
vn -1 0 0
usemtl m_4f8a4499-0a0c-c97f-1feb-5a3b6321c0ea
f 17/49/13 18/50/13 19/51/13 20/52/13
f 21/53/14 17/54/14 20/55/14 22/56/14
f 23/57/15 21/58/15 22/59/15 24/60/15
f 18/61/16 23/62/16 24/63/16 19/64/16
o crystal.004
v 0.634936 0.490346 0.704103
v 0.42106699999999997 0.319871 0.376408
v 0.37045 0.351862 0.475996
v 0.333069 0.51103 0.416424
v 0.400906 0.468449 0.283829
v 0.477989 0.368511 0.516442
v 0.476672 0.533138 0.470063
v 0.528697 0.336536 0.416894
v 0.544509 0.490556 0.337468
v 0.431272 0.604987 0.329934
v 0.544632 0.582358 0.509463
v 0.541041 0.336694 0.434131
v 0.476157 0.523703 0.653494
v 0.48935 0.292801 0.541985
v 0.634936 0.490346 0.704103
v 0.608538 0.267933 0.579585
v 0.703437 0.549038 0.559983
v 0.66023 0.311826 0.471731
v 0.600022 0.692075 0.673718
v 0.544632 0.582358 0.509463
v 0.476157 0.523703 0.653494
v 0.703437 0.549038 0.559983
v 0.499815 0.567929 0.379314
v 0.424194 0.32505 0.40821399999999997
v 0.567422 0.567693 0.535531
v 0.474646 0.324985 0.525466
v 0.714368 0.501425 0.480903
v 0.584774 0.275273 0.48423700000000003
v 0.646704 0.5016959999999999 0.32476
v 0.534322 0.275337 0.366985
v 0.660662 0.69371 0.400462
v 0.349802 0.582965 0.455355
v 0.395446 0.33019 0.463099
v 0.31753600000000004 0.567174 0.621438
v 0.37087800000000004 0.318316 0.587544
v 0.484999 0.583075 0.64569
v 0.496492 0.330273 0.605334
v 0.517269 0.598873 0.479507
v 0.52106 0.342147 0.480889
v 0.39870300000000003 0.751422 0.561732
v 0.349802 0.582965 0.455355
v 0.31753600000000004 0.567174 0.621438
v 0.484999 0.583075 0.64569
v 0.517269 0.598873 0.479507
v 0.537137 0.484883 0.565675
v 0.549961 0.484883 0.459488
v 0.573817 0.642083 0.4515
v 0.557064 0.642083 0.593048
v 0.444997 0.484883 0.43913
v 0.43399699999999997 0.642083 0.423977
v 0.43217300000000003 0.484883 0.545317
v 0.417244 0.642083 0.565526
v 0.497941 0.746883 0.511738
vt 0 0
vt 1 0
vt 1 1
vt 1 1
vt 0 1
vt 0 0
vt 0 0
vt 1 0
vt 1 1
vt 1 1
vt 0 1
vt 0 0
vt 0 0
vt 1 0
vt 1 1
vt 1 1
vt 0 1
vt 0 0
vt 0 0
vt 1 0
vt 1 1
vt 1 1
vt 0 1
vt 0 0
vt 0 1
vt 1 1
vt 0.5 0.5
vt 0 1
vt 1 1
vt 0.5 0.5
vt 0 1
vt 1 1
vt 0.5 0.5
vt 0 1
vt 1 1
vt 0.5 0.5
vt 0 1
vt 0 0
vt 1 1
vt 1 0
vt 1 1
vt 0 0
vt 0 1
vt 0 0
vt 1 1
vt 1 0
vt 1 1
vt 0 0
vt 0 1
vt 0 0
vt 1 1
vt 1 0
vt 1 1
vt 0 0
vt 0 1
vt 0 0
vt 1 1
vt 1 0
vt 1 1
vt 0 0
vt 0.5 0.5
vt 0 1
vt 1 1
vt 0.5 0.5
vt 0 1
vt 1 1
vt 0.5 0.5
vt 0 1
vt 1 1
vt 0.5 0.5
vt 0 1
vt 1 1
vt 0 1
vt 0 0
vt 1 1
vt 1 0
vt 1 1
vt 0 0
vt 0 1
vt 0 0
vt 1 1
vt 1 0
vt 1 1
vt 0 0
vt 0 1
vt 0 0
vt 1 1
vt 1 0
vt 1 1
vt 0 0
vt 0 1
vt 0 0
vt 1 1
vt 1 0
vt 1 1
vt 0 0
vt 0.5 0.5
vt 0 1
vt 1 1
vt 0.5 0.5
vt 0 1
vt 1 1
vt 0.5 0.5
vt 0 1
vt 1 1
vt 0.5 0.5
vt 0 1
vt 1 1
vt 0 1
vt 0 0
vt 1 1
vt 1 0
vt 1 1
vt 0 0
vt 0 1
vt 0 0
vt 1 1
vt 1 0
vt 1 1
vt 0 0
vt 0 1
vt 0 0
vt 1 1
vt 1 0
vt 1 1
vt 0 0
vt 0 1
vt 0 0
vt 1 1
vt 1 0
vt 1 1
vt 0 0
vt 0.5 0.5
vt 0 1
vt 1 1
vt 0.5 0.5
vt 0 1
vt 1 1
vt 0.5 0.5
vt 0 1
vt 1 1
vt 0.5 0.5
vt 0 1
vt 1 1
vt 0 0
vt 1 0
vt 1 1
vt 1 1
vt 0 1
vt 0 0
vt 0 0
vt 1 0
vt 1 1
vt 1 1
vt 0 1
vt 0 0
vt 0 0
vt 1 0
vt 1 1
vt 1 1
vt 0 1
vt 0 0
vt 0 0
vt 1 0
vt 1 1
vt 1 1
vt 0 1
vt 0 0
vt 0 1
vt 1 1
vt 0.5 0.5
vt 0 1
vt 1 1
vt 0.5 0.5
vt 0 1
vt 1 1
vt 0.5 0.5
vt 0 1
vt 1 1
vt 0.5 0.5
vn -0.879336977807095 -0.33367257995719146 -0.33974856709895984
vn -0.8785762711248453 -0.332716784406367 -0.34264161625618317
vn -0.3744637061300979 0.24866005750075929 0.8932777331799057
vn -0.37222655854335385 0.2473912618623155 0.8945641132245036
vn 0.8997192324356592 0.12351388153686946 0.41862826451768004
vn 0.8989794256138565 0.12541645899081133 0.41965069300215274
vn 0.3744611856046043 -0.45323023836613957 -0.8089259369720856
vn 0.37219928075279657 -0.45530128394464564 -0.8088067978481995
vn -0.7846856598322999 0.3477866493539501 -0.51314019700731
vn -0.3142594118031835 0.7995731496410713 0.5117849162159575
vn 0.7001134884390493 0.7015573277118371 0.13288498500406754
vn 0.3064500027293372 0.24265181039038997 -0.9204392944357904
vn -0.9149652118511082 0.1304702015148605 -0.3818588582433676
vn -0.913782567130125 0.13312280851845673 -0.38377042337996425
vn -0.35464279849802244 -0.4229603861467961 0.8338662945724837
vn -0.35179277798512104 -0.4251413301172203 0.8339644421578609
vn 0.9056992630781103 -0.28379828720395517 0.31490852170093736
vn 0.9046831251607546 -0.2832163357461506 0.3183346512962333
vn 0.3430840690701364 0.2719945710637228 -0.8990618860023706
vn 0.3405715376179516 0.2710921047296664 -0.9002888972534228
vn -0.7907352332921755 0.5976356306130872 -0.13254977877034152
vn -0.2842473396315705 0.09451070238480289 0.9540813262228257
vn 0.8433397963107474 0.21982007614536214 0.4903642748834729
vn 0.34242864786742455 0.7238519897752078 -0.5989832368423675
vn -0.87056098277044 0.31593836550295595 0.37723537013525965
vn -0.8710123767834667 0.3173981083225816 0.37496117175417404
vn 0.28516358742643616 -0.14827403437236863 0.9469406207028122
vn 0.28645083369512386 -0.15019772650934085 0.9462486791677936
vn 0.809931546602112 -0.4693089371365285 -0.3517954112015863
vn 0.8116098285515979 -0.46813757920108257 -0.34948060480976095
vn -0.3488117194250288 -0.0016467078524510233 -0.9371913746642165
vn -0.3513969474300171 -0.001992341735115392 -0.9362244474009832
vn -0.6151516401741067 0.7416979971768605 0.26734348799800645
vn 0.4822064388586281 0.4493034963370986 0.7520660333391872
vn 0.9139138307897888 0.08964411795505245 -0.39588564258784864
vn -0.17103749482464703 0.37210771819631683 -0.9122949202000631
vn -0.9622659784186258 -0.18000954995244559 -0.20406064957252962
vn -0.9620262955362472 -0.1780267823972678 -0.20691029806677383
vn -0.12652980219694407 -0.16044582176442174 0.9789010917525538
vn -0.12325072216101307 -0.1618985713217577 0.9790802378205592
vn 0.9813178385368408 0.013981609899655606 0.19188489871273604
vn 0.980663351155055 0.015531353564027559 0.1950850295584126
vn 0.14304110976420395 -0.0032155390548380173 -0.9897115242463391
vn 0.14068314436770848 -0.004927492742675117 -0.9900424095492503
vn -0.9219450462594351 0.3591701217007287 -0.14496259984965779
vn -0.1674675604556767 0.36990985523446585 0.9138497224355002
vn 0.8235685401308636 0.5269054490933313 0.2100131125012752
vn 0.07386828057912091 0.5170556782796486 -0.8527584081573498
vn 0.9825715412036471 -0.14308107141569507 0.11866327746706816
vn 0.9826016637576817 -0.14480715815022943 0.11629642010436346
vn 0.18977776551504721 -0.08103883923881457 -0.9784769318951477
vn 0.19253716888143488 -0.07892059007222127 -0.9781109237002592
vn -0.9897129036306476 -0.07862549961691774 -0.11952572608849879
vn -0.9898413855760034 -0.08055640190253928 -0.11715245415053994
vn -0.18838477595437048 -0.14525005880456784 0.9712948041691005
vn -0.1911481594043968 -0.14299240607540017 0.9710898789304104
vn 0.8320875240652774 0.5458311123668725 0.09848222716439363
vn 0.1579434846177578 0.5755471974753447 -0.8023710358338446
vn -0.8118915554931041 0.5758459649151741 -0.0960912421082167
vn -0.16176111909320243 0.5463391408062 0.8217949157623561
usemtl m_cf9e686b-cd7a-dac3-f400-a8e1627af265
f 26/65/17 27/66/17 28/67/17
f 28/68/18 29/69/18 26/70/18
f 27/71/19 30/72/19 31/73/19
f 31/74/20 28/75/20 27/76/20
f 30/77/21 32/78/21 33/79/21
f 33/80/22 31/81/22 30/82/22
f 32/83/23 26/84/23 29/85/23
f 29/86/24 33/87/24 32/88/24
f 29/89/25 28/90/25 34/91/25
f 28/92/26 31/93/26 34/94/26
f 31/95/27 33/96/27 34/97/27
f 33/98/28 29/99/28 34/100/28
f 35/101/29 36/102/29 37/103/29
f 38/104/30 37/105/30 36/106/30
f 37/107/31 38/108/31 39/109/31
f 40/110/32 39/111/32 38/112/32
f 39/113/33 40/114/33 41/115/33
f 42/116/34 41/117/34 40/118/34
f 41/119/35 42/120/35 35/121/35
f 36/122/36 35/123/36 42/124/36
f 43/125/37 44/126/37 45/127/37
f 43/128/38 45/129/38 25/130/38
f 43/131/39 25/132/39 46/133/39
f 43/134/40 46/135/40 44/136/40
f 47/137/41 48/138/41 49/139/41
f 50/140/42 49/141/42 48/142/42
f 49/143/43 50/144/43 51/145/43
f 52/146/44 51/147/44 50/148/44
f 51/149/45 52/150/45 53/151/45
f 54/152/46 53/153/46 52/154/46
f 53/155/47 54/156/47 47/157/47
f 48/158/48 47/159/48 54/160/48
f 55/161/49 47/162/49 49/163/49
f 55/164/50 49/165/50 51/166/50
f 55/167/51 51/168/51 53/169/51
f 55/170/52 53/171/52 47/172/52
f 56/173/53 57/174/53 58/175/53
f 59/176/54 58/177/54 57/178/54
f 58/179/55 59/180/55 60/181/55
f 61/182/56 60/183/56 59/184/56
f 60/185/57 61/186/57 62/187/57
f 63/188/58 62/189/58 61/190/58
f 62/191/59 63/192/59 56/193/59
f 57/194/60 56/195/60 63/196/60
f 64/197/61 65/198/61 66/199/61
f 64/200/62 66/201/62 67/202/62
f 64/203/63 67/204/63 68/205/63
f 64/206/64 68/207/64 65/208/64
f 69/209/65 70/210/65 71/211/65
f 71/212/66 72/213/66 69/214/66
f 70/215/67 73/216/67 74/217/67
f 74/218/68 71/219/68 70/220/68
f 73/221/69 75/222/69 76/223/69
f 76/224/70 74/225/70 73/226/70
f 75/227/71 69/228/71 72/229/71
f 72/230/72 76/231/72 75/232/72
f 72/233/73 71/234/73 77/235/73
f 71/236/74 74/237/74 77/238/74
f 74/239/75 76/240/75 77/241/75
f 76/242/76 72/243/76 77/244/76