# Made in Blockbench 5.1.4
mtllib model.mtl

o unknown
o lock
v -0.5 -1.1102230246251565e-16 0.5
v -0.5 1.1102230246251565e-16 -0.5
v 0.5 1.1102230246251565e-16 -0.5
v 0.5 -1.1102230246251565e-16 0.5
v -0.25 0.75 0.25000000000000017
v 0.25 0.75 0.25000000000000017
v 0.25 0.75 -0.24999999999999983
v -0.25 0.75 -0.24999999999999983
v 0.5 0.2499999999999999 0.5
v -0.5 0.2499999999999999 0.5
v 0.5 0.2500000000000001 -0.49999999999999994
v -0.5 0.2500000000000001 -0.49999999999999994
v 0.25 0.49999999999999994 0.2500000000000001
v -0.25 0.49999999999999994 0.2500000000000001
v 0.25 0.5 -0.2499999999999999
v -0.25 0.5 -0.2499999999999999
vt 0 0.5
vt 0 0
vt 0.5 0
vt 0.5 0
vt 0.5 0.5
vt 0 0.5
vt 0 0.75
vt 0.25 0.75
vt 0.25 1
vt 0.25 1
vt 0 1
vt 0 0.75
vt 0.5 0.5
vt 1 0.5
vt 1 0.625
vt 1 0.625
vt 0.5 0.625
vt 0.5 0.5
vt 0.5 0.5
vt 1 0.5
vt 1 0.625
vt 1 0.625
vt 0.5 0.625
vt 0.5 0.5
vt 0.5 0.5
vt 1 0.5
vt 1 0.625
vt 1 0.625
vt 0.5 0.625
vt 0.5 0.5
vt 0.5 0.5
vt 1 0.5
vt 1 0.625
vt 1 0.625
vt 0.5 0.625
vt 0.5 0.5
vt 0.5 0.625
vt 1 0.625
vt 0.875 0.875
vt 0.875 0.875
vt 0.625 0.875
vt 0.5 0.625
vt 0.5 0.625
vt 1 0.625
vt 0.875 0.875
vt 0.875 0.875
vt 0.625 0.875
vt 0.5 0.625
vt 0.5 0.625
vt 1 0.625
vt 0.875 0.875
vt 0.875 0.875
vt 0.625 0.875
vt 0.5 0.625
vt 0.5 0.625
vt 1 0.625
vt 0.875 0.875
vt 0.875 0.875
vt 0.625 0.875
vt 0.5 0.625
vt 0.625 0.875
vt 0.875 0.875
vt 0.875 1
vt 0.875 1
vt 0.625 1
vt 0.625 0.875
vt 0.625 0.875
vt 0.875 0.875
vt 0.875 1
vt 0.875 1
vt 0.625 1
vt 0.625 0.875
vt 0.625 0.875
vt 0.875 0.875
vt 0.875 1
vt 0.875 1
vt 0.625 1
vt 0.625 0.875
vt 0.625 0.875
vt 0.875 0.875
vt 0.875 1
vt 0.875 1
vt 0.625 1
vt 0.625 0.875
vn 0 -1 -2.220446049250313e-16
vn 0 -1 -2.220446049250313e-16
vn 0 1 2.220446049250313e-16
vn 0 1 2.220446049250313e-16
vn 0 -2.220446049250313e-16 1
vn 0 -2.220446049250313e-16 1
vn 1 0 0
vn 1 0 0
vn 0 2.220446049250313e-16 -1
vn 0 2.220446049250313e-16 -1
vn -1 0 0
vn -1 0 0
vn 0 0.7071067811865475 0.7071067811865477
vn 0 0.7071067811865475 0.7071067811865477
vn 0.7071067811865476 0.7071067811865476 1.5700924586837752e-16
vn 0.7071067811865476 0.7071067811865476 1.5700924586837752e-16
vn 0 0.7071067811865477 -0.7071067811865475
vn 0 0.7071067811865477 -0.7071067811865475
vn -0.7071067811865476 0.7071067811865476 1.5700924586837752e-16
vn -0.7071067811865476 0.7071067811865476 1.5700924586837752e-16
vn 0 -2.220446049250313e-16 1
vn 0 -2.220446049250313e-16 1
vn 1 0 0
vn 1 0 0
vn 0 2.220446049250313e-16 -1
vn 0 2.220446049250313e-16 -1
vn -1 0 0
vn -1 0 0
usemtl m_27de5ff5-f79a-cf99-332b-4a7e32f94d3d
f 1/1/1 2/2/1 3/3/1
f 3/4/2 4/5/2 1/6/2
f 5/7/3 6/8/3 7/9/3
f 7/10/4 8/11/4 5/12/4
f 1/13/5 4/14/5 9/15/5
f 9/16/6 10/17/6 1/18/6
f 4/19/7 3/20/7 11/21/7
f 11/22/8 9/23/8 4/24/8
f 3/25/9 2/26/9 12/27/9
f 12/28/10 11/29/10 3/30/10
f 2/31/11 1/32/11 10/33/11
f 10/34/12 12/35/12 2/36/12
f 10/37/13 9/38/13 13/39/13
f 13/40/14 14/41/14 10/42/14
f 9/43/15 11/44/15 15/45/15
f 15/46/16 13/47/16 9/48/16
f 11/49/17 12/50/17 16/51/17
f 16/52/18 15/53/18 11/54/18
f 12/55/19 10/56/19 14/57/19
f 14/58/20 16/59/20 12/60/20
f 14/61/21 13/62/21 6/63/21
f 6/64/22 5/65/22 14/66/22
f 13/67/23 15/68/23 7/69/23
f 7/70/24 6/71/24 13/72/24
f 15/73/25 16/74/25 8/75/25
f 8/76/26 7/77/26 15/78/26
f 16/79/27 14/80/27 5/81/27
f 5/82/28 8/83/28 16/84/28
o piston
v -0.1 0.12499999999999997 0.15000000000000002
v -0.1 0.12500000000000003 -0.14999999999999997
v 0.1 0.12500000000000003 -0.14999999999999997
v 0.1 0.12499999999999997 0.15000000000000002
v -0.1 0.625 0.15000000000000013
v 0.1 0.625 0.15000000000000013
v 0.1 0.625 -0.14999999999999986
v -0.1 0.625 -0.14999999999999986
vt 0.9375 0.4688
vt 0.75 0.4688
vt 0.75 0.3457
vt 0.75 0.3457
vt 0.9375 0.3457
vt 0.9375 0.4688
vt 0.75 0.4688
vt 0.75 0.3457
vt 0.9375 0.3457
vt 0.9375 0.3457
vt 0.9375 0.4688
vt 0.75 0.4688
vt 0.595 0.0625
vt 0.7175 0.0625
vt 0.717 0.31299999999999994
vt 0.717 0.31299999999999994
vt 0.595 0.31299999999999994
vt 0.595 0.0625
vt 0.75 0.0625
vt 0.9375 0.0625
vt 0.9375 0.3125
vt 0.9375 0.3125
vt 0.75 0.3125
vt 0.75 0.0625
vt 0.595 0.0625
vt 0.7175 0.0625
vt 0.717 0.31299999999999994
vt 0.717 0.31299999999999994
vt 0.595 0.31299999999999994
vt 0.595 0.0625
vt 0.75 0.0625
vt 0.9375 0.0625
vt 0.9375 0.3125
vt 0.9375 0.3125
vt 0.75 0.3125
vt 0.75 0.0625
vn 0 -1 -2.220446049250313e-16
vn 0 -1 -2.220446049250313e-16
vn 0 1 2.220446049250313e-16
vn 0 1 2.220446049250313e-16
vn 0 -2.220446049250313e-16 1
vn 0 -2.220446049250313e-16 1
vn 1 0 0
vn 1 0 0
vn 0 2.220446049250313e-16 -1
vn 0 2.220446049250313e-16 -1
vn -1 0 0
vn -1 0 0
usemtl m_27de5ff5-f79a-cf99-332b-4a7e32f94d3d
f 17/85/29 18/86/29 19/87/29
f 19/88/30 20/89/30 17/90/30
f 21/91/31 22/92/31 23/93/31
f 23/94/32 24/95/32 21/96/32
f 17/97/33 20/98/33 22/99/33
f 22/100/34 21/101/34 17/102/34
f 20/103/35 19/104/35 23/105/35
f 23/106/36 22/107/36 20/108/36
f 19/109/37 18/110/37 24/111/37
f 24/112/38 23/113/38 19/114/38
f 18/115/39 17/116/39 21/117/39
f 21/118/40 24/119/40 18/120/40
o unknown
o Cylinder001
v 0.1155 0.5 -0.0478
v 0.0478 0.5 -0.1155
v 0.0478 0.5625 -0.11549999999999999
v 0.1155 0.5625 -0.04779999999999999
v -0.0478 0.5 -0.1155
v -0.0478 0.5625 -0.11549999999999999
v -0.1155 0.5 -0.0478
v -0.1155 0.5625 -0.04779999999999999
v -0.1155 0.5 0.0478
v -0.1155 0.5625 0.047800000000000016
v -0.0478 0.5 0.1155
v -0.0478 0.5625 0.11550000000000002
v 0.0478 0.5 0.1155
v 0.0478 0.5625 0.11550000000000002
v 0.1155 0.5 0.0478
v 0.1155 0.5625 0.047800000000000016
v 0.5044 0.5625000000000001 -0.4367
v 0.4367 0.5625000000000001 -0.5044
v 0.4367 0.6875000000000001 -0.5044
v 0.5044 0.6875000000000001 -0.4366999999999999
v -0.0478 0.6875 -0.11549999999999996
v 0.0478 0.6875 -0.11549999999999996
v -0.4367 0.5625000000000001 -0.5044
v -0.5044 0.5625000000000001 -0.4367
v -0.5044 0.6875000000000001 -0.4366999999999999
v -0.4367 0.6875000000000001 -0.5044
v -0.1155 0.6875 0.047800000000000044
v -0.1155 0.6875 -0.04779999999999996
v -0.5044 0.5624999999999999 0.4367
v -0.4367 0.5624999999999999 0.5044
v -0.4367 0.6874999999999999 0.5044
v -0.5044 0.6874999999999999 0.43670000000000003
v 0.0478 0.6875 0.11550000000000005
v -0.0478 0.6875 0.11550000000000005
v 0.4367 0.5624999999999999 0.5044
v 0.5044 0.5624999999999999 0.4367
v 0.5044 0.6874999999999999 0.43670000000000003
v 0.4367 0.6874999999999999 0.5044
v 0.1155 0.6875 -0.04779999999999996
v 0.1155 0.6875 0.047800000000000044
v 0.0478 0.75 -0.11549999999999995
v 0.1155 0.75 -0.04779999999999995
v -0.0478 0.75 -0.11549999999999995
v -0.1155 0.75 -0.04779999999999995
v -0.1155 0.75 0.04780000000000006
v -0.0478 0.75 0.11550000000000006
v 0.0478 0.75 0.11550000000000006
v 0.1155 0.75 0.04780000000000006
v 0.348 0.5625000000000001 -0.4157
v 0.4157 0.5625000000000001 -0.348
v 0.348 0.6875000000000001 -0.41569999999999996
v 0.4157 0.6875000000000001 -0.3479999999999999
v -0.4157 0.5625000000000001 -0.348
v -0.348 0.5625000000000001 -0.4157
v -0.4157 0.6875000000000001 -0.3479999999999999
v -0.348 0.6875000000000001 -0.41569999999999996
v -0.348 0.5624999999999999 0.4157
v -0.4157 0.5624999999999999 0.348
v -0.348 0.6874999999999999 0.41570000000000007
v -0.4157 0.6874999999999999 0.34800000000000003
v 0.4157 0.5624999999999999 0.348
v 0.348 0.5624999999999999 0.4157
v 0.4157 0.6874999999999999 0.34800000000000003
v 0.348 0.6874999999999999 0.41570000000000007
v 0.348 1.4375 -0.4156999999999998
v 0.4157 1.4375 -0.34799999999999975
v 0.5044 1.4375 -0.43669999999999976
v 0.4367 1.4375 -0.5043999999999997
v -0.4157 1.4375 -0.34799999999999975
v -0.348 1.4375 -0.4156999999999998
v -0.4367 1.4375 -0.5043999999999997
v -0.5044 1.4375 -0.43669999999999976
v -0.348 1.4375 0.41570000000000024
v -0.4157 1.4375 0.3480000000000002
v -0.5044 1.4375 0.4367000000000002
v -0.4367 1.4375 0.5044000000000002
v 0.4157 1.4375 0.3480000000000002
v 0.348 1.4375 0.41570000000000024
v 0.4367 1.4375 0.5044000000000002
v 0.5044 1.4375 0.4367000000000002
v 0.4157 1.3125 -0.3479999999999998
v 0.348 1.3125 -0.41569999999999985
v 0.5044 1.3125 -0.4366999999999998
v 0.4367 1.3125 -0.5043999999999997
v -0.348 1.3125 -0.41569999999999985
v -0.4157 1.3125 -0.3479999999999998
v -0.4367 1.3125 -0.5043999999999997
v -0.5044 1.3125 -0.4366999999999998
v -0.4157 1.3125 0.34800000000000014
v -0.348 1.3125 0.4157000000000002
v -0.5044 1.3125 0.43670000000000014
v -0.4367 1.3125 0.5044000000000002
v 0.348 1.3125 0.4157000000000002
v 0.4157 1.3125 0.34800000000000014
v 0.4367 1.3125 0.5044000000000002
v 0.5044 1.3125 0.43670000000000014
v 0.2596 1.3125 -0.3272999999999998
v 0.3273 1.3125 -0.25959999999999983
v 0.3273 1.4375 -0.2595999999999998
v 0.2596 1.4375 -0.32729999999999976
v -0.3273 1.3125 -0.25959999999999983
v -0.2596 1.3125 -0.3272999999999998
v -0.2596 1.4375 -0.32729999999999976
v -0.3273 1.4375 -0.2595999999999998
v -0.2596 1.3125 0.32730000000000015
v -0.3273 1.3125 0.25960000000000016
v -0.3273 1.4375 0.2596000000000002
v -0.2596 1.4375 0.3273000000000002
v 0.3273 1.3125 0.25960000000000016
v 0.2596 1.3125 0.32730000000000015
v 0.2596 1.4375 0.3273000000000002
v 0.3273 1.4375 0.2596000000000002
v -0.25 1.25 0.25000000000000017
v 0.25 1.25 0.25000000000000017
v 0.25 1.25 -0.24999999999999983
v -0.25 1.25 -0.24999999999999983
v -0.25 0.75 0.25000000000000006
v 0.25 0.75 0.25000000000000006
v 0.25 0.75 -0.24999999999999994
v -0.25 0.75 -0.24999999999999994
vt 0.2969 0.6563
vt 0.3281 0.6563
vt 0.3281 0.6875
vt 0.3281 0.6875
vt 0.2969 0.6875
vt 0.2969 0.6563
vt 0.0781 0.6563
vt 0.1094 0.6563
vt 0.1094 0.6875
vt 0.1094 0.6875
vt 0.0781 0.6875
vt 0.0781 0.6563
vt 0.1094 0.6563
vt 0.1406 0.6563
vt 0.1406 0.6875
vt 0.1406 0.6875
vt 0.1094 0.6875
vt 0.1094 0.6563
vt 0.1406 0.6563
vt 0.1719 0.6563
vt 0.1719 0.6875
vt 0.1719 0.6875
vt 0.1406 0.6875
vt 0.1406 0.6563
vt 0.1719 0.6563
vt 0.2031 0.6563
vt 0.2031 0.6875
vt 0.2031 0.6875
vt 0.1719 0.6875
vt 0.1719 0.6563
vt 0.2031 0.6563
vt 0.2344 0.6563
vt 0.2344 0.6875
vt 0.2344 0.6875
vt 0.2031 0.6875
vt 0.2031 0.6563
vt 0.2344 0.6563
vt 0.2656 0.6563
vt 0.2656 0.6875
vt 0.2656 0.6875
vt 0.2344 0.6875
vt 0.2344 0.6563
vt 0.2656 0.6563
vt 0.2969 0.6563
vt 0.2969 0.6875
vt 0.2969 0.6875
vt 0.2656 0.6875
vt 0.2656 0.6563
vt 0.5313 0.6094
vt 0.5313 0.5469
vt 0.6094 0.5469
vt 0.6094 0.5469
vt 0.6094 0.6094
vt 0.5313 0.6094
vt 0.0781 0.6875
vt 0.1094 0.6875
vt 0.1094 0.7188
vt 0.1094 0.7188
vt 0.0781 0.7188
vt 0.0781 0.6875
vt 0.5313 0.6094
vt 0.5313 0.5469
vt 0.6094 0.5469
vt 0.6094 0.5469
vt 0.6094 0.6094
vt 0.5313 0.6094
vt 0.1406 0.6875
vt 0.1719 0.6875
vt 0.1719 0.7188
vt 0.1719 0.7188
vt 0.1406 0.7188
vt 0.1406 0.6875
vt 0.5313 0.6094
vt 0.5313 0.5469
vt 0.6094 0.5469
vt 0.6094 0.5469
vt 0.6094 0.6094
vt 0.5313 0.6094
vt 0.2031 0.6875
vt 0.2344 0.6875
vt 0.2344 0.7188
vt 0.2344 0.7188
vt 0.2031 0.7188
vt 0.2031 0.6875
vt 0.5313 0.6094
vt 0.5313 0.5469
vt 0.6094 0.5469
vt 0.6094 0.5469
vt 0.6094 0.6094
vt 0.5313 0.6094
vt 0.2656 0.6875
vt 0.2969 0.6875
vt 0.2969 0.7188
vt 0.2969 0.7188
vt 0.2656 0.7188
vt 0.2656 0.6875
vt 0.2969 0.7188
vt 0.3281 0.7188
vt 0.3281 0.75
vt 0.3281 0.75
vt 0.2969 0.75
vt 0.2969 0.7188
vt 0.0781 0.7188
vt 0.1094 0.7188
vt 0.1094 0.75
vt 0.1094 0.75
vt 0.0781 0.75
vt 0.0781 0.7188
vt 0.1094 0.7188
vt 0.1406 0.7188
vt 0.1406 0.75
vt 0.1406 0.75
vt 0.1094 0.75
vt 0.1094 0.7188
vt 0.1406 0.7188
vt 0.1719 0.7188
vt 0.1719 0.75
vt 0.1719 0.75
vt 0.1406 0.75
vt 0.1406 0.7188
vt 0.1719 0.7188
vt 0.2031 0.7188
vt 0.2031 0.75
vt 0.2031 0.75
vt 0.1719 0.75
vt 0.1719 0.7188
vt 0.2031 0.7188
vt 0.2344 0.7188
vt 0.2344 0.75
vt 0.2344 0.75
vt 0.2031 0.75
vt 0.2031 0.7188
vt 0.2344 0.7188
vt 0.2656 0.7188
vt 0.2656 0.75
vt 0.2656 0.75
vt 0.2344 0.75
vt 0.2344 0.7188
vt 0.2656 0.7188
vt 0.2969 0.7188
vt 0.2969 0.75
vt 0.2969 0.75
vt 0.2656 0.75
vt 0.2656 0.7188
vt 0.1719 0.2188
vt 0.1719 0.125
vt 0.2344 0.0625
vt 0.2344 0.0625
vt 0.3281 0.0625
vt 0.3906 0.125
vt 0.3906 0.125
vt 0.3906 0.2188
vt 0.3281 0.2813
vt 0.2344 0.0625
vt 0.3906 0.125
vt 0.3281 0.2813
vt 0.1719 0.2188
vt 0.2344 0.0625
vt 0.3281 0.2813
vt 0.2344 0.2813
vt 0.1719 0.2188
vt 0.3281 0.2813
vt 0.4531 0.3438
vt 0.4531 0.4063
vt 0.2188 0.4063
vt 0.2188 0.4063
vt 0.2188 0.3438
vt 0.4531 0.3438
vt 0.5313 0.9063
vt 0.6094 0.9063
vt 0.6094 0.7031
vt 0.6094 0.7031
vt 0.5313 0.7031
vt 0.5313 0.9063
vt 0.1406 0.4063
vt 0.1406 0.3438
vt 0.4531 0.3438
vt 0.4531 0.3438
vt 0.4531 0.4063
vt 0.1406 0.4063
vt 0.6094 0.9063
vt 0.5313 0.9063
vt 0.5313 0.7031
vt 0.5313 0.7031
vt 0.6094 0.7031
vt 0.6094 0.9063
vt 0.4531 0.4063
vt 0.4531 0.3438
vt 0.2188 0.3438
vt 0.2188 0.3438
vt 0.2188 0.4063
vt 0.4531 0.4063
vt 0.5313 0.9063
vt 0.6094 0.9063
vt 0.6094 0.7031
vt 0.6094 0.7031
vt 0.5313 0.7031
vt 0.5313 0.9063
vt 0.1406 0.4063
vt 0.1406 0.3438
vt 0.4531 0.3438
vt 0.4531 0.3438
vt 0.4531 0.4063
vt 0.1406 0.4063
vt 0.6094 0.9063
vt 0.5313 0.9063
vt 0.5313 0.7031
vt 0.5313 0.7031
vt 0.6094 0.7031
vt 0.6094 0.9063
vt 0.4531 0.4063
vt 0.4531 0.3438
vt 0.2188 0.3438
vt 0.2188 0.3438
vt 0.2188 0.4063
vt 0.4531 0.4063
vt 0.5313 0.9063
vt 0.6094 0.9063
vt 0.6094 0.7031
vt 0.6094 0.7031
vt 0.5313 0.7031
vt 0.5313 0.9063
vt 0.4531 0.3438
vt 0.4531 0.4063
vt 0.1406 0.4063
vt 0.1406 0.4063
vt 0.1406 0.3438
vt 0.4531 0.3438
vt 0.6094 0.9063
vt 0.5313 0.9063
vt 0.5313 0.7031
vt 0.5313 0.7031
vt 0.6094 0.7031
vt 0.6094 0.9063
vt 0.4531 0.3438
vt 0.4531 0.4063
vt 0.2188 0.4063
vt 0.2188 0.4063
vt 0.2188 0.3438
vt 0.4531 0.3438
vt 0.5313 0.9063
vt 0.6094 0.9063
vt 0.6094 0.7031
vt 0.6094 0.7031
vt 0.5313 0.7031
vt 0.5313 0.9063
vt 0.4531 0.3438
vt 0.4531 0.4063
vt 0.1406 0.4063
vt 0.1406 0.4063
vt 0.1406 0.3438
vt 0.4531 0.3438
vt 0.6094 0.9063
vt 0.5313 0.9063
vt 0.5313 0.7031
vt 0.5313 0.7031
vt 0.6094 0.7031
vt 0.6094 0.9063
vt 0.2188 0.3438
vt 0.2188 0.4063
vt 0.1406 0.4063
vt 0.1406 0.4063
vt 0.1406 0.3438
vt 0.2188 0.3438
vt 0.5313 0.7031
vt 0.6094 0.7031
vt 0.6094 0.625
vt 0.6094 0.625
vt 0.5313 0.625
vt 0.5313 0.7031
vt 0.3906 0.5
vt 0.3906 0.4375
vt 0.4531 0.4375
vt 0.4531 0.4375
vt 0.4531 0.5
vt 0.3906 0.5
vt 0.6094 0.7031
vt 0.5313 0.7031
vt 0.5313 0.625
vt 0.5313 0.625
vt 0.6094 0.625
vt 0.6094 0.7031
vt 0.2188 0.4063
vt 0.2188 0.3438
vt 0.1406 0.3438
vt 0.1406 0.3438
vt 0.1406 0.4063
vt 0.2188 0.4063
vt 0.5313 0.7031
vt 0.6094 0.7031
vt 0.6094 0.625
vt 0.6094 0.625
vt 0.5313 0.625
vt 0.5313 0.7031
vt 0.3906 0.5
vt 0.3906 0.4375
vt 0.4531 0.4375
vt 0.4531 0.4375
vt 0.4531 0.5
vt 0.3906 0.5
vt 0.6094 0.7031
vt 0.5313 0.7031
vt 0.5313 0.625
vt 0.5313 0.625
vt 0.6094 0.625
vt 0.6094 0.7031
vt 0.2188 0.4063
vt 0.2188 0.3438
vt 0.1406 0.3438
vt 0.1406 0.3438
vt 0.1406 0.4063
vt 0.2188 0.4063
vt 0.5313 0.7031
vt 0.6094 0.7031
vt 0.6094 0.625
vt 0.6094 0.625
vt 0.5313 0.625
vt 0.5313 0.7031
vt 0.3906 0.5
vt 0.3906 0.4375
vt 0.4531 0.4375
vt 0.4531 0.4375
vt 0.4531 0.5
vt 0.3906 0.5
vt 0.6094 0.7031
vt 0.5313 0.7031
vt 0.5313 0.625
vt 0.5313 0.625
vt 0.6094 0.625
vt 0.6094 0.7031
vt 0.2188 0.3438
vt 0.2188 0.4063
vt 0.1406 0.4063
vt 0.1406 0.4063
vt 0.1406 0.3438
vt 0.2188 0.3438
vt 0.5313 0.7031
vt 0.6094 0.7031
vt 0.6094 0.625
vt 0.6094 0.625
vt 0.5313 0.625
vt 0.5313 0.7031
vt 0.3906 0.5
vt 0.3906 0.4375
vt 0.4531 0.4375
vt 0.4531 0.4375
vt 0.4531 0.5
vt 0.3906 0.5
vt 0.6094 0.7031
vt 0.5313 0.7031
vt 0.5313 0.625
vt 0.5313 0.625
vt 0.6094 0.625
vt 0.6094 0.7031
vt 0.6094 0.6094
vt 0.6094 0.5469
vt 0.8906 0.5469
vt 0.8906 0.5469
vt 0.8906 0.6094
vt 0.6094 0.6094
vt 0.6094 0.7031
vt 0.6094 0.625
vt 0.8906 0.625
vt 0.8906 0.625
vt 0.8906 0.7031
vt 0.6094 0.7031
vt 0.6094 0.6094
vt 0.6094 0.5469
vt 0.8906 0.5469
vt 0.8906 0.5469
vt 0.8906 0.6094
vt 0.6094 0.6094
vt 0.6094 0.625
vt 0.6094 0.7031
vt 0.8906 0.7031
vt 0.8906 0.7031
vt 0.8906 0.625
vt 0.6094 0.625
vt 0.6094 0.6094
vt 0.6094 0.5469
vt 0.8906 0.5469
vt 0.8906 0.5469
vt 0.8906 0.6094
vt 0.6094 0.6094
vt 0.6094 0.7031
vt 0.6094 0.625
vt 0.8906 0.625
vt 0.8906 0.625
vt 0.8906 0.7031
vt 0.6094 0.7031
vt 0.6094 0.6094
vt 0.6094 0.5469
vt 0.8906 0.5469
vt 0.8906 0.5469
vt 0.8906 0.6094
vt 0.6094 0.6094
vt 0.6094 0.625
vt 0.6094 0.7031
vt 0.8906 0.7031
vt 0.8906 0.7031
vt 0.8906 0.625
vt 0.6094 0.625
vt 0.6094 0.6094
vt 0.6094 0.5469
vt 0.8906 0.5469
vt 0.8906 0.5469
vt 0.8906 0.6094
vt 0.6094 0.6094
vt 0.6094 0.7031
vt 0.6094 0.625
vt 0.8906 0.625
vt 0.8906 0.625
vt 0.8906 0.7031
vt 0.6094 0.7031
vt 0.6094 0.6094
vt 0.6094 0.5469
vt 0.8906 0.5469
vt 0.8906 0.5469
vt 0.8906 0.6094
vt 0.6094 0.6094
vt 0.6094 0.625
vt 0.6094 0.7031
vt 0.8906 0.7031
vt 0.8906 0.7031
vt 0.8906 0.625
vt 0.6094 0.625
vt 0.6094 0.7031
vt 0.6094 0.625
vt 0.8906 0.625
vt 0.8906 0.625
vt 0.8906 0.7031
vt 0.6094 0.7031
vt 0.6094 0.7031
vt 0.6094 0.625
vt 0.8906 0.625
vt 0.8906 0.625
vt 0.8906 0.7031
vt 0.6094 0.7031
vt 0.6094 0.6094
vt 0.6094 0.5469
vt 0.8906 0.5469
vt 0.8906 0.5469
vt 0.8906 0.6094
vt 0.6094 0.6094
vt 0.6094 0.625
vt 0.6094 0.7031
vt 0.8906 0.7031
vt 0.8906 0.7031
vt 0.8906 0.625
vt 0.6094 0.625
vt 0.3281 0.5
vt 0.3281 0.4375
vt 0.4531 0.4375
vt 0.4531 0.4375
vt 0.4531 0.5
vt 0.3281 0.5
vt 0.8906 0.7031
vt 0.8906 0.625
vt 0.9688 0.625
vt 0.9688 0.625
vt 0.9688 0.7031
vt 0.8906 0.7031
vt 0.8906 0.6094
vt 0.8906 0.5469
vt 0.9688 0.5469
vt 0.9688 0.5469
vt 0.9688 0.6094
vt 0.8906 0.6094
vt 0.8906 0.625
vt 0.8906 0.7031
vt 0.9688 0.7031
vt 0.9688 0.7031
vt 0.9688 0.625
vt 0.8906 0.625
vt 0.3281 0.5
vt 0.3281 0.4375
vt 0.4531 0.4375
vt 0.4531 0.4375
vt 0.4531 0.5
vt 0.3281 0.5
vt 0.8906 0.7031
vt 0.8906 0.625
vt 0.9688 0.625
vt 0.9688 0.625
vt 0.9688 0.7031
vt 0.8906 0.7031
vt 0.8906 0.6094
vt 0.8906 0.5469
vt 0.9688 0.5469
vt 0.9688 0.5469
vt 0.9688 0.6094
vt 0.8906 0.6094
vt 0.8906 0.625
vt 0.8906 0.7031
vt 0.9688 0.7031
vt 0.9688 0.7031
vt 0.9688 0.625
vt 0.8906 0.625
vt 0.3281 0.5
vt 0.3281 0.4375
vt 0.4531 0.4375
vt 0.4531 0.4375
vt 0.4531 0.5
vt 0.3281 0.5
vt 0.8906 0.7031
vt 0.8906 0.625
vt 0.9688 0.625
vt 0.9688 0.625
vt 0.9688 0.7031
vt 0.8906 0.7031
vt 0.8906 0.6094
vt 0.8906 0.5469
vt 0.9688 0.5469
vt 0.9688 0.5469
vt 0.9688 0.6094
vt 0.8906 0.6094
vt 0.8906 0.625
vt 0.8906 0.7031
vt 0.9688 0.7031
vt 0.9688 0.7031
vt 0.9688 0.625
vt 0.8906 0.625
vt 0.3281 0.5
vt 0.3281 0.4375
vt 0.4531 0.4375
vt 0.4531 0.4375
vt 0.4531 0.5
vt 0.3281 0.5
vt 0.8906 0.7031
vt 0.8906 0.625
vt 0.9688 0.625
vt 0.9688 0.625
vt 0.9688 0.7031
vt 0.8906 0.7031
vt 0.8906 0.6094
vt 0.8906 0.5469
vt 0.9688 0.5469
vt 0.9688 0.5469
vt 0.9688 0.6094
vt 0.8906 0.6094
vt 0.8906 0.625
vt 0.8906 0.7031
vt 0.9688 0.7031
vt 0.9688 0.7031
vt 0.9688 0.625
vt 0.8906 0.625
vt 0.3281 0.5
vt 0.3281 0.4375
vt 0.4531 0.4375
vt 0.4531 0.4375
vt 0.4531 0.5
vt 0.3281 0.5
vt 0.8906 0.7031
vt 0.9688 0.7031
vt 0.9688 0.7813
vt 0.9688 0.7813
vt 0.8906 0.7813
vt 0.8906 0.7031
vt 0.3906 0.4375
vt 0.3906 0.5
vt 0.3281 0.5
vt 0.3281 0.5
vt 0.3281 0.4375
vt 0.3906 0.4375
vt 0.9688 0.7031
vt 0.8906 0.7031
vt 0.8906 0.7813
vt 0.8906 0.7813
vt 0.9688 0.7813
vt 0.9688 0.7031
vt 0.4531 0.4375
vt 0.4531 0.5
vt 0.3281 0.5
vt 0.3281 0.5
vt 0.3281 0.4375
vt 0.4531 0.4375
vt 0.8906 0.7031
vt 0.9688 0.7031
vt 0.9688 0.7813
vt 0.9688 0.7813
vt 0.8906 0.7813
vt 0.8906 0.7031
vt 0.3906 0.4375
vt 0.3906 0.5
vt 0.3281 0.5
vt 0.3281 0.5
vt 0.3281 0.4375
vt 0.3906 0.4375
vt 0.9688 0.7031
vt 0.8906 0.7031
vt 0.8906 0.7813
vt 0.8906 0.7813
vt 0.9688 0.7813
vt 0.9688 0.7031
vt 0.4531 0.4375
vt 0.4531 0.5
vt 0.3281 0.5
vt 0.3281 0.5
vt 0.3281 0.4375
vt 0.4531 0.4375
vt 0.8906 0.7031
vt 0.9688 0.7031
vt 0.9688 0.7813
vt 0.9688 0.7813
vt 0.8906 0.7813
vt 0.8906 0.7031
vt 0.3906 0.4375
vt 0.3906 0.5
vt 0.3281 0.5
vt 0.3281 0.5
vt 0.3281 0.4375
vt 0.3906 0.4375
vt 0.9688 0.7031
vt 0.8906 0.7031
vt 0.8906 0.7813
vt 0.8906 0.7813
vt 0.9688 0.7813
vt 0.9688 0.7031
vt 0.3281 0.5
vt 0.3281 0.4375
vt 0.4531 0.4375
vt 0.4531 0.4375
vt 0.4531 0.5
vt 0.3281 0.5
vt 0.8906 0.7031
vt 0.9688 0.7031
vt 0.9688 0.7813
vt 0.9688 0.7813
vt 0.8906 0.7813
vt 0.8906 0.7031
vt 0.3906 0.4375
vt 0.3906 0.5
vt 0.3281 0.5
vt 0.3281 0.5
vt 0.3281 0.4375
vt 0.3906 0.4375
vt 0.9688 0.7031
vt 0.8906 0.7031
vt 0.8906 0.7813
vt 0.8906 0.7813
vt 0.9688 0.7813
vt 0.9688 0.7031
vt 1 0.5
vt 0.5 0.5
vt 0.5 0
vt 0.5 0
vt 1 0
vt 1 0.5
vt 0.5 0.5
vt 0.5 0
vt 1 0
vt 1 0
vt 1 0.5
vt 0.5 0.5
vt 0.5 0.5
vt 0.5 0
vt 1 0
vt 1 0
vt 1 0.5
vt 0.5 0.5
vt 0.5 0.5
vt 0.5 0
vt 1 0
vt 1 0
vt 1 0.5
vt 0.5 0.5
vt 0.5 0.5
vt 0.5 0
vt 1 0
vt 1 0
vt 1 0.5
vt 0.5 0.5
vt 0.8594 0.20310000000000006
vt 0.7969 0.14060000000000006
vt 1 0
vt 0.8594 0.29689999999999994
vt 0.8594 0.20310000000000006
vt 1 0
vt 0.8594 0.29689999999999994
vt 1 0
vt 1 0.5
vt 0.7969 0.35939999999999994
vt 0.8594 0.29689999999999994
vt 1 0.5
vt 0.7031 0.35939999999999994
vt 0.7969 0.35939999999999994
vt 1 0.5
vt 0.7031 0.35939999999999994
vt 1 0.5
vt 0.5 0.5
vt 0.6406 0.29689999999999994
vt 0.7031 0.35939999999999994
vt 0.5 0.5
vt 0.6406 0.20310000000000006
vt 0.6406 0.29689999999999994
vt 0.5 0.5
vt 0.6406 0.20310000000000006
vt 0.5 0.5
vt 0.5 0
vt 0.7031 0.14060000000000006
vt 0.6406 0.20310000000000006
vt 0.5 0
vt 0.7031 0.14060000000000006
vt 0.5 0
vt 1 0
vt 0.7031 0.14060000000000006
vt 1 0
vt 0.7969 0.14060000000000006
vn 0.7071067811865476 1.5700924586837752e-16 -0.7071067811865476
vn 0.7071067811865476 1.5700924586837752e-16 -0.7071067811865476
vn 0 2.220446049250313e-16 -1
vn 0 2.220446049250313e-16 -1
vn -0.7071067811865476 1.5700924586837752e-16 -0.7071067811865476
vn -0.7071067811865476 1.5700924586837752e-16 -0.7071067811865476
vn -1 0 0
vn -1 0 0
vn -0.7071067811865476 -1.5700924586837752e-16 0.7071067811865476
vn -0.7071067811865476 -1.5700924586837752e-16 0.7071067811865476
vn 0 -2.220446049250313e-16 1
vn 0 -2.220446049250313e-16 1
vn 0.7071067811865476 -1.5700924586837752e-16 0.7071067811865476
vn 0.7071067811865476 -1.5700924586837752e-16 0.7071067811865476
vn 1 0 0
vn 1 0 0
vn 0.7071067811865476 1.5700924586837752e-16 -0.7071067811865476
vn 0.7071067811865476 1.5700924586837752e-16 -0.7071067811865476
vn 0 2.220446049250313e-16 -1
vn 0 2.220446049250313e-16 -1
vn -0.7071067811865476 1.5700924586837752e-16 -0.7071067811865476
vn -0.7071067811865476 1.5700924586837752e-16 -0.7071067811865476
vn -1 0 0
vn -1 0 0
vn -0.7071067811865476 -1.5700924586837752e-16 0.7071067811865476
vn -0.7071067811865476 -1.5700924586837752e-16 0.7071067811865476
vn 0 -2.220446049250313e-16 1
vn 0 -2.220446049250313e-16 1
vn 0.7071067811865476 -1.5700924586837752e-16 0.7071067811865476
vn 0.7071067811865476 -1.5700924586837752e-16 0.7071067811865476
vn 1 0 0
vn 1 0 0
vn 0.7071067811865476 1.5700924586837752e-16 -0.7071067811865476
vn 0.7071067811865476 1.5700924586837752e-16 -0.7071067811865476
vn 0 2.220446049250313e-16 -1
vn 0 2.220446049250313e-16 -1
vn -0.7071067811865476 1.5700924586837752e-16 -0.7071067811865476
vn -0.7071067811865476 1.5700924586837752e-16 -0.7071067811865476
vn -1 0 0
vn -1 0 0
vn -0.7071067811865476 -1.5700924586837752e-16 0.7071067811865476
vn -0.7071067811865476 -1.5700924586837752e-16 0.7071067811865476
vn 0 -2.220446049250313e-16 1
vn 0 -2.220446049250313e-16 1
vn 0.7071067811865476 -1.5700924586837752e-16 0.7071067811865476
vn 0.7071067811865476 -1.5700924586837752e-16 0.7071067811865476
vn 1 0 0
vn 1 0 0
vn 0 -1 -2.220446049250313e-16
vn 0 -1 -2.220446049250313e-16
vn 0 -1 -2.220446049250313e-16
vn 0 -1 -2.220446049250313e-16
vn 0 -1 -2.220446049250313e-16
vn 0 -1 -2.220446049250313e-16
vn 0 -1 -2.220446049250313e-16
vn 0 -1 -2.220446049250313e-16
vn -0.7071067811865476 1.570092458683775e-16 -0.7071067811865475
vn -0.7071067811865476 1.570092458683775e-16 -0.7071067811865475
vn 0 1 2.220446049250313e-16
vn 0 1 2.220446049250313e-16
vn 0.7071067811865475 -1.5700924586837752e-16 0.7071067811865476
vn 0.7071067811865475 -1.5700924586837752e-16 0.7071067811865476
vn 0 -1 -2.220446049250313e-16
vn 0 -1 -2.220446049250313e-16
vn -0.7071067811865475 -1.5700924586837752e-16 0.7071067811865476
vn -0.7071067811865475 -1.5700924586837752e-16 0.7071067811865476
vn 0 1 2.220446049250313e-16
vn 0 1 2.220446049250313e-16
vn 0.7071067811865476 1.570092458683775e-16 -0.7071067811865475
vn 0.7071067811865476 1.570092458683775e-16 -0.7071067811865475
vn 0 -1 -2.220446049250313e-16
vn 0 -1 -2.220446049250313e-16
vn 0.7071067811865476 -1.570092458683775e-16 0.7071067811865475
vn 0.7071067811865476 -1.570092458683775e-16 0.7071067811865475
vn 0 1 2.220446049250313e-16
vn 0 1 2.220446049250313e-16
vn -0.7071067811865475 1.5700924586837752e-16 -0.7071067811865476
vn -0.7071067811865475 1.5700924586837752e-16 -0.7071067811865476
vn 0 -1 -2.220446049250313e-16
vn 0 -1 -2.220446049250313e-16
vn 0.7071067811865475 1.5700924586837752e-16 -0.7071067811865476
vn 0.7071067811865475 1.5700924586837752e-16 -0.7071067811865476
vn 0 1 2.220446049250313e-16
vn 0 1 2.220446049250313e-16
vn -0.7071067811865476 -1.570092458683775e-16 0.7071067811865475
vn -0.7071067811865476 -1.570092458683775e-16 0.7071067811865475
vn 0 -1 -2.220446049250313e-16
vn 0 -1 -2.220446049250313e-16
vn -0.7071067811865474 1.5700924586837757e-16 -0.7071067811865478
vn -0.7071067811865474 1.5700924586837757e-16 -0.7071067811865478
vn 0 1 2.220446049250313e-16
vn 0 1 2.220446049250313e-16
vn 0.7071067811865478 -1.5700924586837747e-16 0.7071067811865474
vn 0.7071067811865478 -1.5700924586837747e-16 0.7071067811865474
vn 0 -1 -2.220446049250313e-16
vn 0 -1 -2.220446049250313e-16
vn -0.7071067811865478 -1.5700924586837747e-16 0.7071067811865474
vn -0.7071067811865478 -1.5700924586837747e-16 0.7071067811865474
vn 0 1 2.220446049250313e-16
vn 0 1 2.220446049250313e-16
vn 0.7071067811865474 1.5700924586837757e-16 -0.7071067811865478
vn 0.7071067811865474 1.5700924586837757e-16 -0.7071067811865478
vn 0 -1 -2.220446049250313e-16
vn 0 -1 -2.220446049250313e-16
vn 0.7071067811865474 -1.5700924586837757e-16 0.7071067811865478
vn 0.7071067811865474 -1.5700924586837757e-16 0.7071067811865478
vn 0 1 2.220446049250313e-16
vn 0 1 2.220446049250313e-16
vn -0.7071067811865478 1.5700924586837747e-16 -0.7071067811865474
vn -0.7071067811865478 1.5700924586837747e-16 -0.7071067811865474
vn 0 -1 -2.220446049250313e-16
vn 0 -1 -2.220446049250313e-16
vn 0.7071067811865478 1.5700924586837747e-16 -0.7071067811865474
vn 0.7071067811865478 1.5700924586837747e-16 -0.7071067811865474
vn 0 1 2.220446049250313e-16
vn 0 1 2.220446049250313e-16
vn -0.7071067811865474 -1.5700924586837757e-16 0.7071067811865478
vn -0.7071067811865474 -1.5700924586837757e-16 0.7071067811865478
vn -0.7071067811865476 -1.5700924586837752e-16 0.7071067811865476
vn -0.7071067811865476 -1.5700924586837752e-16 0.7071067811865476
vn 0.7071067811865478 -1.5700924586837747e-16 0.7071067811865474
vn 0.7071067811865478 -1.5700924586837747e-16 0.7071067811865474
vn 0.7071067811865476 1.5700924586837752e-16 -0.7071067811865476
vn 0.7071067811865476 1.5700924586837752e-16 -0.7071067811865476
vn -0.7071067811865474 1.5700924586837757e-16 -0.7071067811865478
vn -0.7071067811865474 1.5700924586837757e-16 -0.7071067811865478
vn 0.7071067811865476 -1.5700924586837752e-16 0.7071067811865476
vn 0.7071067811865476 -1.5700924586837752e-16 0.7071067811865476
vn 0.7071067811865474 1.5700924586837757e-16 -0.7071067811865478
vn 0.7071067811865474 1.5700924586837757e-16 -0.7071067811865478
vn -0.7071067811865476 1.5700924586837752e-16 -0.7071067811865476
vn -0.7071067811865476 1.5700924586837752e-16 -0.7071067811865476
vn -0.7071067811865478 -1.5700924586837747e-16 0.7071067811865474
vn -0.7071067811865478 -1.5700924586837747e-16 0.7071067811865474
vn 0.7071067811865476 1.5700924586837752e-16 -0.7071067811865476
vn 0.7071067811865476 1.5700924586837752e-16 -0.7071067811865476
vn -0.7071067811865478 1.5700924586837747e-16 -0.7071067811865474
vn -0.7071067811865478 1.5700924586837747e-16 -0.7071067811865474
vn -0.7071067811865476 -1.5700924586837752e-16 0.7071067811865476
vn -0.7071067811865476 -1.5700924586837752e-16 0.7071067811865476
vn 0.7071067811865474 -1.5700924586837757e-16 0.7071067811865478
vn 0.7071067811865474 -1.5700924586837757e-16 0.7071067811865478
vn -0.7071067811865476 1.5700924586837752e-16 -0.7071067811865476
vn -0.7071067811865476 1.5700924586837752e-16 -0.7071067811865476
vn -0.7071067811865474 -1.5700924586837757e-16 0.7071067811865478
vn -0.7071067811865474 -1.5700924586837757e-16 0.7071067811865478
vn 0.7071067811865476 -1.5700924586837752e-16 0.7071067811865476
vn 0.7071067811865476 -1.5700924586837752e-16 0.7071067811865476
vn 0.7071067811865478 1.5700924586837747e-16 -0.7071067811865474
vn 0.7071067811865478 1.5700924586837747e-16 -0.7071067811865474
vn -0.7071067811865476 -1.5700924586837752e-16 0.7071067811865476
vn -0.7071067811865476 -1.5700924586837752e-16 0.7071067811865476
vn 0.7071067811865478 -1.5700924586837747e-16 0.7071067811865474
vn 0.7071067811865478 -1.5700924586837747e-16 0.7071067811865474
vn 0.7071067811865476 1.5700924586837752e-16 -0.7071067811865476
vn 0.7071067811865476 1.5700924586837752e-16 -0.7071067811865476
vn -0.7071067811865474 1.5700924586837757e-16 -0.7071067811865478
vn -0.7071067811865474 1.5700924586837757e-16 -0.7071067811865478
vn 0.7071067811865476 -1.5700924586837752e-16 0.7071067811865476
vn 0.7071067811865476 -1.5700924586837752e-16 0.7071067811865476
vn 0.7071067811865474 1.5700924586837757e-16 -0.7071067811865478
vn 0.7071067811865474 1.5700924586837757e-16 -0.7071067811865478
vn -0.7071067811865476 1.5700924586837752e-16 -0.7071067811865476
vn -0.7071067811865476 1.5700924586837752e-16 -0.7071067811865476
vn -0.7071067811865478 -1.5700924586837747e-16 0.7071067811865474
vn -0.7071067811865478 -1.5700924586837747e-16 0.7071067811865474
vn 0.7071067811865476 1.5700924586837752e-16 -0.7071067811865476
vn 0.7071067811865476 1.5700924586837752e-16 -0.7071067811865476
vn -0.7071067811865478 1.5700924586837747e-16 -0.7071067811865474
vn -0.7071067811865478 1.5700924586837747e-16 -0.7071067811865474
vn -0.7071067811865476 -1.5700924586837752e-16 0.7071067811865476
vn -0.7071067811865476 -1.5700924586837752e-16 0.7071067811865476
vn 0.7071067811865474 -1.5700924586837757e-16 0.7071067811865478
vn 0.7071067811865474 -1.5700924586837757e-16 0.7071067811865478
vn -0.7071067811865476 1.5700924586837752e-16 -0.7071067811865476
vn -0.7071067811865476 1.5700924586837752e-16 -0.7071067811865476
vn -0.7071067811865474 -1.5700924586837757e-16 0.7071067811865478
vn -0.7071067811865474 -1.5700924586837757e-16 0.7071067811865478
vn 0.7071067811865476 -1.5700924586837752e-16 0.7071067811865476
vn 0.7071067811865476 -1.5700924586837752e-16 0.7071067811865476
vn 0.7071067811865478 1.5700924586837747e-16 -0.7071067811865474
vn 0.7071067811865478 1.5700924586837747e-16 -0.7071067811865474
vn 0 -1 -2.220446049250313e-16
vn 0 -1 -2.220446049250313e-16
vn 0.7071067811865474 -1.5700924586837757e-16 0.7071067811865478
vn 0.7071067811865474 -1.5700924586837757e-16 0.7071067811865478
vn 0 1 2.220446049250313e-16
vn 0 1 2.220446049250313e-16
vn -0.7071067811865478 1.5700924586837747e-16 -0.7071067811865474
vn -0.7071067811865478 1.5700924586837747e-16 -0.7071067811865474
vn 0 -1 -2.220446049250313e-16
vn 0 -1 -2.220446049250313e-16
vn 0.7071067811865478 1.5700924586837747e-16 -0.7071067811865474
vn 0.7071067811865478 1.5700924586837747e-16 -0.7071067811865474
vn 0 1 2.220446049250313e-16
vn 0 1 2.220446049250313e-16
vn -0.7071067811865474 -1.5700924586837757e-16 0.7071067811865478
vn -0.7071067811865474 -1.5700924586837757e-16 0.7071067811865478
vn 0 -1 -2.220446049250313e-16
vn 0 -1 -2.220446049250313e-16
vn -0.7071067811865474 1.5700924586837757e-16 -0.7071067811865478
vn -0.7071067811865474 1.5700924586837757e-16 -0.7071067811865478
vn 0 1 2.220446049250313e-16
vn 0 1 2.220446049250313e-16
vn 0.7071067811865478 -1.5700924586837747e-16 0.7071067811865474
vn 0.7071067811865478 -1.5700924586837747e-16 0.7071067811865474
vn 0 -1 -2.220446049250313e-16
vn 0 -1 -2.220446049250313e-16
vn -0.7071067811865478 -1.5700924586837747e-16 0.7071067811865474
vn -0.7071067811865478 -1.5700924586837747e-16 0.7071067811865474
vn 0 1 2.220446049250313e-16
vn 0 1 2.220446049250313e-16
vn 0.7071067811865474 1.5700924586837757e-16 -0.7071067811865478
vn 0.7071067811865474 1.5700924586837757e-16 -0.7071067811865478
vn 0 1 2.220446049250313e-16
vn 0 1 2.220446049250313e-16
vn 0 -2.220446049250313e-16 1
vn 0 -2.220446049250313e-16 1
vn 1 0 0
vn 1 0 0
vn 0 2.220446049250313e-16 -1
vn 0 2.220446049250313e-16 -1
vn -1 0 0
vn -1 0 0
vn 0 -1 -2.220446049250313e-16
vn 0 -1 -2.220446049250313e-16
vn 0 -1 -2.220446049250313e-16
vn 0 -1 -2.220446049250313e-16
vn 0 -1 -2.220446049250313e-16
vn 0 -1 -2.220446049250313e-16
vn 0 -1 -2.220446049250313e-16
vn 0 -1 -2.220446049250313e-16
vn 0 -1 -2.220446049250313e-16
vn 0 -1 -2.220446049250313e-16
vn 0 -1 -2.220446049250313e-16
vn 0 -1 -2.220446049250313e-16
usemtl m_aba47342-293c-46ff-4167-89b6cf40f8df
f 25/121/41 26/122/41 27/123/41
f 27/124/42 28/125/42 25/126/42
f 26/127/43 29/128/43 30/129/43
f 30/130/44 27/131/44 26/132/44
f 29/133/45 31/134/45 32/135/45
f 32/136/46 30/137/46 29/138/46
f 31/139/47 33/140/47 34/141/47
f 34/142/48 32/143/48 31/144/48
f 33/145/49 35/146/49 36/147/49
f 36/148/50 34/149/50 33/150/50
f 35/151/51 37/152/51 38/153/51
f 38/154/52 36/155/52 35/156/52
f 37/157/53 39/158/53 40/159/53
f 40/160/54 38/161/54 37/162/54
f 39/163/55 25/164/55 28/165/55
f 28/166/56 40/167/56 39/168/56
f 41/169/57 42/170/57 43/171/57
f 43/172/58 44/173/58 41/174/58
f 27/175/59 30/176/59 45/177/59
f 45/178/60 46/179/60 27/180/60
f 47/181/61 48/182/61 49/183/61
f 49/184/62 50/185/62 47/186/62
f 32/187/63 34/188/63 51/189/63
f 51/190/64 52/191/64 32/192/64
f 53/193/65 54/194/65 55/195/65
f 55/196/66 56/197/66 53/198/66
f 36/199/67 38/200/67 57/201/67
f 57/202/68 58/203/68 36/204/68
f 59/205/69 60/206/69 61/207/69
f 61/208/70 62/209/70 59/210/70
f 40/211/71 28/212/71 63/213/71
f 63/214/72 64/215/72 40/216/72
f 63/217/73 46/218/73 65/219/73
f 65/220/74 66/221/74 63/222/74
f 46/223/75 45/224/75 67/225/75
f 67/226/76 65/227/76 46/228/76
f 45/229/77 52/230/77 68/231/77
f 68/232/78 67/233/78 45/234/78
f 52/235/79 51/236/79 69/237/79
f 69/238/80 68/239/80 52/240/80
f 51/241/81 58/242/81 70/243/81
f 70/244/82 69/245/82 51/246/82
f 58/247/83 57/248/83 71/249/83
f 71/250/84 70/251/84 58/252/84
f 57/253/85 64/254/85 72/255/85
f 72/256/86 71/257/86 57/258/86
f 64/259/87 63/260/87 66/261/87
f 66/262/88 72/263/88 64/264/88
f 37/265/89 35/266/89 33/267/89
f 33/268/90 31/269/90 29/270/90
f 29/271/91 26/272/91 25/273/91
f 33/274/92 29/275/92 25/276/92
f 37/277/93 33/278/93 25/279/93
f 39/280/94 37/281/94 25/282/94
f 28/283/95 27/284/95 73/285/95
f 73/286/96 74/287/96 28/288/96
f 27/289/97 46/290/97 75/291/97
f 75/292/98 73/293/98 27/294/98
f 46/295/99 63/296/99 76/297/99
f 76/298/100 75/299/100 46/300/100
f 63/301/101 28/302/101 74/303/101
f 74/304/102 76/305/102 63/306/102
f 30/307/103 32/308/103 77/309/103
f 77/310/104 78/311/104 30/312/104
f 32/313/105 52/314/105 79/315/105
f 79/316/106 77/317/106 32/318/106
f 52/319/107 45/320/107 80/321/107
f 80/322/108 79/323/108 52/324/108
f 45/325/109 30/326/109 78/327/109
f 78/328/110 80/329/110 45/330/110
f 34/331/111 36/332/111 81/333/111
f 81/334/112 82/335/112 34/336/112
f 36/337/113 58/338/113 83/339/113
f 83/340/114 81/341/114 36/342/114
f 58/343/115 51/344/115 84/345/115
f 84/346/116 83/347/116 58/348/116
f 51/349/117 34/350/117 82/351/117
f 82/352/118 84/353/118 51/354/118
f 38/355/119 40/356/119 85/357/119
f 85/358/120 86/359/120 38/360/120
f 40/361/121 64/362/121 87/363/121
f 87/364/122 85/365/122 40/366/122
f 64/367/123 57/368/123 88/369/123
f 88/370/124 87/371/124 64/372/124
f 57/373/125 38/374/125 86/375/125
f 86/376/126 88/377/126 57/378/126
f 74/379/127 73/380/127 42/381/127
f 42/382/128 41/383/128 74/384/128
f 73/385/129 75/386/129 43/387/129
f 43/388/130 42/389/130 73/390/130
f 89/391/131 90/392/131 91/393/131
f 91/394/132 92/395/132 89/396/132
f 76/397/133 74/398/133 41/399/133
f 41/400/134 44/401/134 76/402/134
f 78/403/135 77/404/135 48/405/135
f 48/406/136 47/407/136 78/408/136
f 77/409/137 79/410/137 49/411/137
f 49/412/138 48/413/138 77/414/138
f 93/415/139 94/416/139 95/417/139
f 95/418/140 96/419/140 93/420/140
f 80/421/141 78/422/141 47/423/141
f 47/424/142 50/425/142 80/426/142
f 82/427/143 81/428/143 54/429/143
f 54/430/144 53/431/144 82/432/144
f 81/433/145 83/434/145 55/435/145
f 55/436/146 54/437/146 81/438/146
f 97/439/147 98/440/147 99/441/147
f 99/442/148 100/443/148 97/444/148
f 84/445/149 82/446/149 53/447/149
f 53/448/150 56/449/150 84/450/150
f 86/451/151 85/452/151 60/453/151
f 60/454/152 59/455/152 86/456/152
f 85/457/153 87/458/153 61/459/153
f 61/460/154 60/461/154 85/462/154
f 101/463/155 102/464/155 103/465/155
f 103/466/156 104/467/156 101/468/156
f 88/469/157 86/470/157 59/471/157
f 59/472/158 62/473/158 88/474/158
f 75/475/159 76/476/159 105/477/159
f 105/478/160 106/479/160 75/480/160
f 76/481/161 44/482/161 107/483/161
f 107/484/162 105/485/162 76/486/162
f 44/487/163 43/488/163 108/489/163
f 108/490/164 107/491/164 44/492/164
f 43/493/165 75/494/165 106/495/165
f 106/496/166 108/497/166 43/498/166
f 79/499/167 80/500/167 109/501/167
f 109/502/168 110/503/168 79/504/168
f 80/505/169 50/506/169 111/507/169
f 111/508/170 109/509/170 80/510/170
f 50/511/171 49/512/171 112/513/171
f 112/514/172 111/515/172 50/516/172
f 49/517/173 79/518/173 110/519/173
f 110/520/174 112/521/174 49/522/174
f 83/523/175 84/524/175 113/525/175
f 113/526/176 114/527/176 83/528/176
f 84/529/177 56/530/177 115/531/177
f 115/532/178 113/533/178 84/534/178
f 56/535/179 55/536/179 116/537/179
f 116/538/180 115/539/180 56/540/180
f 55/541/181 83/542/181 114/543/181
f 114/544/182 116/545/182 55/546/182
f 87/547/183 88/548/183 117/549/183
f 117/550/184 118/551/184 87/552/184
f 88/553/185 62/554/185 119/555/185
f 119/556/186 117/557/186 88/558/186
f 62/559/187 61/560/187 120/561/187
f 120/562/188 119/563/188 62/564/188
f 61/565/189 87/566/189 118/567/189
f 118/568/190 120/569/190 61/570/190
f 121/571/191 122/572/191 123/573/191
f 123/574/192 124/575/192 121/576/192
f 105/577/193 107/578/193 91/579/193
f 91/580/194 90/581/194 105/582/194
f 107/583/195 108/584/195 92/585/195
f 92/586/196 91/587/196 107/588/196
f 108/589/197 106/590/197 89/591/197
f 89/592/198 92/593/198 108/594/198
f 125/595/199 126/596/199 127/597/199
f 127/598/200 128/599/200 125/600/200
f 109/601/201 111/602/201 95/603/201
f 95/604/202 94/605/202 109/606/202
f 111/607/203 112/608/203 96/609/203
f 96/610/204 95/611/204 111/612/204
f 112/613/205 110/614/205 93/615/205
f 93/616/206 96/617/206 112/618/206
f 129/619/207 130/620/207 131/621/207
f 131/622/208 132/623/208 129/624/208
f 113/625/209 115/626/209 99/627/209
f 99/628/210 98/629/210 113/630/210
f 115/631/211 116/632/211 100/633/211
f 100/634/212 99/635/212 115/636/212
f 116/637/213 114/638/213 97/639/213
f 97/640/214 100/641/214 116/642/214
f 133/643/215 134/644/215 135/645/215
f 135/646/216 136/647/216 133/648/216
f 117/649/217 119/650/217 103/651/217
f 103/652/218 102/653/218 117/654/218
f 119/655/219 120/656/219 104/657/219
f 104/658/220 103/659/220 119/660/220
f 120/661/221 118/662/221 101/663/221
f 101/664/222 104/665/222 120/666/222
f 106/667/223 105/668/223 122/669/223
f 122/670/224 121/671/224 106/672/224
f 105/673/225 90/674/225 123/675/225
f 123/676/226 122/677/226 105/678/226
f 90/679/227 89/680/227 124/681/227
f 124/682/228 123/683/228 90/684/228
f 89/685/229 106/686/229 121/687/229
f 121/688/230 124/689/230 89/690/230
f 110/691/231 109/692/231 126/693/231
f 126/694/232 125/695/232 110/696/232
f 109/697/233 94/698/233 127/699/233
f 127/700/234 126/701/234 109/702/234
f 94/703/235 93/704/235 128/705/235
f 128/706/236 127/707/236 94/708/236
f 93/709/237 110/710/237 125/711/237
f 125/712/238 128/713/238 93/714/238
f 114/715/239 113/716/239 130/717/239
f 130/718/240 129/719/240 114/720/240
f 113/721/241 98/722/241 131/723/241
f 131/724/242 130/725/242 113/726/242
f 98/727/243 97/728/243 132/729/243
f 132/730/244 131/731/244 98/732/244
f 97/733/245 114/734/245 129/735/245
f 129/736/246 132/737/246 97/738/246
f 118/739/247 117/740/247 134/741/247
f 134/742/248 133/743/248 118/744/248
f 117/745/249 102/746/249 135/747/249
f 135/748/250 134/749/250 117/750/250
f 102/751/251 101/752/251 136/753/251
f 136/754/252 135/755/252 102/756/252
f 101/757/253 118/758/253 133/759/253
f 133/760/254 136/761/254 101/762/254
f 137/763/255 138/764/255 139/765/255
f 139/766/256 140/767/256 137/768/256
f 141/769/257 142/770/257 138/771/257
f 138/772/258 137/773/258 141/774/258
f 142/775/259 143/776/259 139/777/259
f 139/778/260 138/779/260 142/780/260
f 143/781/261 144/782/261 140/783/261
f 140/784/262 139/785/262 143/786/262
f 144/787/263 141/788/263 137/789/263
f 137/790/264 140/791/264 144/792/264
f 71/793/265 72/794/265 142/795/265
f 70/796/266 71/797/266 142/798/266
f 70/799/267 142/800/267 141/801/267
f 69/802/268 70/803/268 141/804/268
f 68/805/269 69/806/269 141/807/269
f 68/808/270 141/809/270 144/810/270
f 67/811/271 68/812/271 144/813/271
f 65/814/272 67/815/272 144/816/272
f 65/817/273 144/818/273 143/819/273
f 66/820/274 65/821/274 143/822/274
f 66/823/275 143/824/275 142/825/275
f 66/826/276 142/827/276 72/828/276