# Made in Blockbench 4.12.4
mtllib port.mtl

o Cube
v 0.6875 0 0.3125
v 0.3125 0 0.3125
v 0.3125 0.125 0.3125
v 0.6875 0.125 0.3125
v 0.6875 0 0.6875
v 0.6875 0.125 0.6875
v 0.3125 0 0.6875
v 0.3125 0.125 0.6875
vt 0.125 0.125
vt 0.5 0.125
vt 0.5 0.25
vt 0.125 0.25
vt 0.125 0.25
vt 0.5 0.25
vt 0.5 0.375
vt 0.125 0.375
vt 0.125 0
vt 0.5 0
vt 0.5 0.125
vt 0.125 0.125
vt 0.125 0.375
vt 0.5 0.375
vt 0.5 0.5
vt 0.125 0.5
vt 0 0
vt 0.375 0
vt 0.375 0.375
vt 0 0.375
vt 0 0.125
vt 0.375 0.125
vt 0.375 0.5
vt 0 0.5
vn 0 0 -1
vn 1 0 0
vn 0 0 1
vn -1 0 0
vn 0 1 0
vn 0 -1 0
usemtl m_50aa3565-e0b5-dc5c-d8d2-5d224d6d9295
f 1/1/1 2/2/1 3/3/1 4/4/1
f 5/5/2 1/6/2 4/7/2 6/8/2
f 7/9/3 5/10/3 6/11/3 8/12/3
f 2/13/4 7/14/4 8/15/4 3/16/4
f 8/17/5 6/18/5 4/19/5 3/20/5
f 2/21/6 1/22/6 5/23/6 7/24/6
o Cube.001
v 0.6875 0.25 0.3125
v 0.3125 0.25 0.3125
v 0.3125 0.375 0.3125
v 0.6875 0.375 0.3125
v 0.6875 0.25 0.6875
v 0.6875 0.375 0.6875
v 0.3125 0.25 0.6875
v 0.3125 0.375 0.6875
vt 0.125 0.125
vt 0.5 0.125
vt 0.5 0.25
vt 0.125 0.25
vt 0.125 0
vt 0.5 0
vt 0.5 0.125
vt 0.125 0.125
vt 0 0
vt 0.375 0
vt 0.375 0.125
vt 0 0.125
vt 0 0
vt 0.375 0
vt 0.375 0.125
vt 0 0.125
vt 0 0.125
vt 0.375 0.125
vt 0.375 0.5
vt 0 0.5
vt 0 0.125
vt 0.375 0.125
vt 0.375 0.5
vt 0 0.5
vn 0 0 -1
vn 1 0 0
vn 0 0 1
vn -1 0 0
vn 0 1 0
vn 0 -1 0
usemtl m_50aa3565-e0b5-dc5c-d8d2-5d224d6d9295
f 9/25/7 10/26/7 11/27/7 12/28/7
f 13/29/8 9/30/8 12/31/8 14/32/8
f 15/33/9 13/34/9 14/35/9 16/36/9
f 10/37/10 15/38/10 16/39/10 11/40/10
f 16/41/11 14/42/11 12/43/11 11/44/11
f 10/45/12 9/46/12 13/47/12 15/48/12
o Cube.002
v 0.625 0.125 0.375
v 0.375 0.125 0.375
v 0.375 0.25 0.375
v 0.625 0.25 0.375
v 0.625 0.125 0.625
v 0.625 0.25 0.625
v 0.375 0.125 0.625
v 0.375 0.25 0.625
vt 0 0.375
vt 0.25 0.375
vt 0.25 0.5
vt 0 0.5
vt 0 0.25
vt 0.25 0.25
vt 0.25 0.375
vt 0 0.375
vt 0 0.125
vt 0.25 0.125
vt 0.25 0.25
vt 0 0.25
vt 0 0
vt 0.25 0
vt 0.25 0.125
vt 0 0.125
vn 0 0 -1
vn 1 0 0
vn 0 0 1
vn -1 0 0
usemtl m_50aa3565-e0b5-dc5c-d8d2-5d224d6d9295
f 17/49/13 18/50/13 19/51/13 20/52/13
f 21/53/14 17/54/14 20/55/14 22/56/14
f 23/57/15 21/58/15 22/59/15 24/60/15
f 18/61/16 23/62/16 24/63/16 19/64/16
o crystal.004
v 0.421066875 0.31987125 0.376408125
v 0.37045 0.351861875 0.47599625
v 0.33306875 0.51103 0.41642375
v 0.40090625 0.46844875 0.28382875
v 0.47798875 0.36851125 0.516441875
v 0.476671875 0.533138125 0.470063125
v 0.528696875 0.33653625 0.41689375
v 0.54450875 0.49055625 0.337468125
v 0.431271875 0.604986875 0.32993375
v 0.544631875 0.582358125 0.509463125
v 0.54104125 0.33669375 0.43413125
v 0.476156875 0.523703125 0.65349375
v 0.48935 0.29280125 0.541985
v 0.63493625 0.49034625 0.704103125
v 0.608538125 0.267933125 0.579585
v 0.703436875 0.549038125 0.559983125
v 0.66023 0.31182625 0.47173125
v 0.600021875 0.692075 0.673718125
v 0.544631875 0.582358125 0.509463125
v 0.476156875 0.523703125 0.65349375
v 0.63493625 0.49034625 0.704103125
v 0.703436875 0.549038125 0.559983125
v 0.499815 0.56792875 0.37931375
v 0.42419375 0.32505 0.40821375
v 0.567421875 0.567693125 0.53553125
v 0.47464625 0.324985 0.52546625
v 0.714368125 0.501425 0.480903125
v 0.58477375 0.275273125 0.484236875
v 0.64670375 0.50169625 0.32476
v 0.534321875 0.275336875 0.366985
v 0.660661875 0.69371 0.400461875
v 0.349801875 0.582965 0.455355
v 0.39544625 0.33019 0.46309875
v 0.31753625 0.56717375 0.621438125
v 0.370878125 0.31831625 0.58754375
v 0.48499875 0.583075 0.64569
v 0.496491875 0.330273125 0.60533375
v 0.51726875 0.598873125 0.479506875
v 0.52106 0.342146875 0.48088875
v 0.398703125 0.751421875 0.561731875
v 0.349801875 0.582965 0.455355
v 0.31753625 0.56717375 0.621438125
v 0.48499875 0.583075 0.64569
v 0.51726875 0.598873125 0.479506875
v 0.537136875 0.484883125 0.565675
v 0.54996125 0.484883125 0.459488125
v 0.573816875 0.642083125 0.4515
v 0.55706375 0.642083125 0.593048125
v 0.444996875 0.484883125 0.43913
v 0.433996875 0.642083125 0.423976875
v 0.432173125 0.484883125 0.545316875
v 0.41724375 0.642083125 0.56552625
v 0.49794125 0.746883125 0.511738125
vt 0.5 0.5
vt 1 0.5
vt 1 1
vt 1 1
vt 0.5 1
vt 0.5 0.5
vt 0.5 0.5
vt 1 0.5
vt 1 1
vt 1 1
vt 0.5 1
vt 0.5 0.5
vt 0.5 0.5
vt 1 0.5
vt 1 1
vt 1 1
vt 0.5 1
vt 0.5 0.5
vt 0.5 0.5
vt 1 0.5
vt 1 1
vt 1 1
vt 0.5 1
vt 0.5 0.5
vt 0.5 1
vt 1 1
vt 0.75 0.5
vt 0.5 1
vt 1 1
vt 0.75 0.5
vt 0.5 1
vt 1 1
vt 0.75 0.5
vt 0.5 1
vt 1 1
vt 0.75 0.5
vt 0.5 1
vt 0.5 0.5
vt 1 1
vt 1 0.5
vt 1 1
vt 0.5 0.5
vt 0.5 1
vt 0.5 0.5
vt 1 1
vt 1 0.5
vt 1 1
vt 0.5 0.5
vt 0.5 1
vt 0.5 0.5
vt 1 1
vt 1 0.5
vt 1 1
vt 0.5 0.5
vt 0.5 1
vt 0.5 0.5
vt 1 1
vt 1 0.5
vt 1 1
vt 0.5 0.5
vt 0.75 0.5
vt 0.5 1
vt 1 1
vt 0.75 0.5
vt 0.5 1
vt 1 1
vt 0.75 0.5
vt 0.5 1
vt 1 1
vt 0.75 0.5
vt 0.5 1
vt 1 1
vt 0.5 1
vt 0.5 0.5
vt 1 1
vt 1 0.5
vt 1 1
vt 0.5 0.5
vt 0.5 1
vt 0.5 0.5
vt 1 1
vt 1 0.5
vt 1 1
vt 0.5 0.5
vt 0.5 1
vt 0.5 0.5
vt 1 1
vt 1 0.5
vt 1 1
vt 0.5 0.5
vt 0.5 1
vt 0.5 0.5
vt 1 1
vt 1 0.5
vt 1 1
vt 0.5 0.5
vt 0.75 0.5
vt 0.5 1
vt 1 1
vt 0.75 0.5
vt 0.5 1
vt 1 1
vt 0.75 0.5
vt 0.5 1
vt 1 1
vt 0.75 0.5
vt 0.5 1
vt 1 1
vt 0.5 1
vt 0.5 0.5
vt 1 1
vt 1 0.5
vt 1 1
vt 0.5 0.5
vt 0.5 1
vt 0.5 0.5
vt 1 1
vt 1 0.5
vt 1 1
vt 0.5 0.5
vt 0.5 1
vt 0.5 0.5
vt 1 1
vt 1 0.5
vt 1 1
vt 0.5 0.5
vt 0.5 1
vt 0.5 0.5
vt 1 1
vt 1 0.5
vt 1 1
vt 0.5 0.5
vt 0.75 0.5
vt 0.5 1
vt 1 1
vt 0.75 0.5
vt 0.5 1
vt 1 1
vt 0.75 0.5
vt 0.5 1
vt 1 1
vt 0.75 0.5
vt 0.5 1
vt 1 1
vt 0.5 0.5
vt 1 0.5
vt 1 1
vt 1 1
vt 0.5 1
vt 0.5 0.5
vt 0.5 0.5
vt 1 0.5
vt 1 1
vt 1 1
vt 0.5 1
vt 0.5 0.5
vt 0.5 0.5
vt 1 0.5
vt 1 1
vt 1 1
vt 0.5 1
vt 0.5 0.5
vt 0.5 0.5
vt 1 0.5
vt 1 1
vt 1 1
vt 0.5 1
vt 0.5 0.5
vt 0.5 1
vt 1 1
vt 0.75 0.5
vt 0.5 1
vt 1 1
vt 0.75 0.5
vt 0.5 1
vt 1 1
vt 0.75 0.5
vt 0.5 1
vt 1 1
vt 0.75 0.5
vn -0.8793366922828777 -0.333674331876839 -0.33974758549775264
vn -0.8785752278036096 -0.3327175895933456 -0.3426435095912798
vn -0.3744624870872048 0.24865938089345194 0.8932784325495328
vn -0.37222853630055214 0.24739240250403483 0.8945629748356627
vn 0.8997190050949133 0.12351386959870476 0.41862875664217514
vn 0.898979689704827 0.12541518440031 0.4196505081851437
vn 0.3744585869655968 -0.4532343997422415 -0.8089248083338887
vn 0.3722036481570744 -0.4552990678745168 -0.8088060355185049
vn -0.7846847696052031 0.34778484944830396 -0.5131427782243944
vn -0.31426055173671147 0.799573981801322 0.5117829161358527
vn 0.7001125984486852 0.7015583649506827 0.13288419793622905
vn 0.30645237401191433 0.2426516502083054 -0.920438547168494
vn -0.9149648342357697 0.13046882729769793 -0.3818602325661497
vn -0.9137813120344468 0.13312338820131345 -0.3837732107513596
vn -0.35464348200112256 -0.42295991769034885 0.8338662414928985
vn -0.3517928461342026 -0.42514133623916145 0.8339644102895384
vn 0.9056999401648178 -0.28379796593578355 0.3149068638759042
vn 0.9046833976377698 -0.28321578450880247 0.31833436736181075
vn 0.34308405583781376 0.27199444041144827 -0.8990619305782774
vn 0.34057113202198713 0.27109183095626266 -0.9002891331244887
vn -0.7907348772990946 0.5976361055192038 -0.13254976123186774
vn -0.28424902151982123 0.09450993598065788 0.9540809010592111
vn 0.8433402244495186 0.21982176540838305 0.49036278129378597
vn 0.3424286011473069 0.7238523059726346 -0.5989828814368555
vn -0.8705616078526356 0.31593949700614044 0.37723297995342503
vn -0.8710121276991694 0.31739642063370205 0.37496317895212067
vn 0.2851639382810098 -0.14827364964295991 0.9469405752873945
vn 0.286453581560335 -0.15020092493296872 0.9462473396319472
vn 0.8099303830811379 -0.4693095120889372 -0.3517973229359273
vn 0.8116108223092968 -0.46813665042170455 -0.3494795410927139
vn -0.34881105784897903 -0.001647271948090852 -0.9371916199035315
vn -0.3513948843033625 -0.0019927164941041745 -0.9362252209625636
vn -0.6151529876600839 0.741697797106377 0.26734094250679313
vn 0.4822068395661061 0.44930478375390676 0.7520650072776442
vn 0.9139132074960035 0.08964400470307923 -0.3958871071216661
vn -0.17103749859935669 0.37210771985123353 -0.9122949188173696
vn -0.9622661582292877 -0.18001074975421746 -0.2040587432568668
vn -0.9620262720849273 -0.1780262645061629 -0.20691085269835302
vn -0.12652904013790245 -0.16044737114926969 0.9789009363020703
vn -0.12325099472963393 -0.16189965875425716 0.979080023692349
vn 0.9813178536503901 0.01398192901322112 0.19188479816822654
vn 0.9806631401968032 0.015532200652290796 0.19508602257015276
vn 0.1430404362129013 -0.003214925221135559 -0.9897116235873182
vn 0.14068330133733215 -0.0049262760187152015 -0.9900423932991036
vn -0.921945470679325 0.3591701005799981 -0.1449599528946948
vn -0.16746795307355988 0.3699107614117346 0.9138492836814738
vn 0.8235690513653356 0.526904549529373 0.21001336461865894
vn 0.07386732917346418 0.5170556562233388 -0.8527585039436613
vn 0.9825714889046336 -0.14307844209809029 0.11866688079879324
vn 0.9826016553963524 -0.14480660127569814 0.11629718414187434
vn 0.18977822376611278 -0.08103957081594916 -0.9784767824256976
vn 0.19253800404741006 -0.07892102513694671 -0.9781107241967921
vn -0.9897129791883743 -0.0786278629158655 -0.11952354579477863
vn -0.9898413084412936 -0.08055654312240403 -0.11715300876800426
vn -0.18838630470878515 -0.1452507183498288 0.9712944090321057
vn -0.19114724943679628 -0.14299506486484434 0.9710896665380835
vn 0.8320890457295366 0.5458286432886235 0.09848305510396319
vn 0.15794410121499997 0.5755477416361572 -0.802370524127666
vn -0.8118898729885191 0.5758482931586794 -0.09609150537337777
vn -0.16176029879274031 0.5463400378934339 0.8217944808339155
usemtl m_4f2acbcb-547e-5f17-7ed3-57237f05ce8d
f 25/65/17 26/66/17 27/67/17
f 27/68/18 28/69/18 25/70/18
f 26/71/19 29/72/19 30/73/19
f 30/74/20 27/75/20 26/76/20
f 29/77/21 31/78/21 32/79/21
f 32/80/22 30/81/22 29/82/22
f 31/83/23 25/84/23 28/85/23
f 28/86/24 32/87/24 31/88/24
f 28/89/25 27/90/25 33/91/25
f 27/92/26 30/93/26 33/94/26
f 30/95/27 32/96/27 33/97/27
f 32/98/28 28/99/28 33/100/28
f 34/101/29 35/102/29 36/103/29
f 37/104/30 36/105/30 35/106/30
f 36/107/31 37/108/31 38/109/31
f 39/110/32 38/111/32 37/112/32
f 38/113/33 39/114/33 40/115/33
f 41/116/34 40/117/34 39/118/34
f 40/119/35 41/120/35 34/121/35
f 35/122/36 34/123/36 41/124/36
f 42/125/37 43/126/37 44/127/37
f 42/128/38 44/129/38 45/130/38
f 42/131/39 45/132/39 46/133/39
f 42/134/40 46/135/40 43/136/40
f 47/137/41 48/138/41 49/139/41
f 50/140/42 49/141/42 48/142/42
f 49/143/43 50/144/43 51/145/43
f 52/146/44 51/147/44 50/148/44
f 51/149/45 52/150/45 53/151/45
f 54/152/46 53/153/46 52/154/46
f 53/155/47 54/156/47 47/157/47
f 48/158/48 47/159/48 54/160/48
f 55/161/49 47/162/49 49/163/49
f 55/164/50 49/165/50 51/166/50
f 55/167/51 51/168/51 53/169/51
f 55/170/52 53/171/52 47/172/52
f 56/173/53 57/174/53 58/175/53
f 59/176/54 58/177/54 57/178/54
f 58/179/55 59/180/55 60/181/55
f 61/182/56 60/183/56 59/184/56
f 60/185/57 61/186/57 62/187/57
f 63/188/58 62/189/58 61/190/58
f 62/191/59 63/192/59 56/193/59
f 57/194/60 56/195/60 63/196/60
f 64/197/61 65/198/61 66/199/61
f 64/200/62 66/201/62 67/202/62
f 64/203/63 67/204/63 68/205/63
f 64/206/64 68/207/64 65/208/64
f 69/209/65 70/210/65 71/211/65
f 71/212/66 72/213/66 69/214/66
f 70/215/67 73/216/67 74/217/67
f 74/218/68 71/219/68 70/220/68
f 73/221/69 75/222/69 76/223/69
f 76/224/70 74/225/70 73/226/70
f 75/227/71 69/228/71 72/229/71
f 72/230/72 76/231/72 75/232/72
f 72/233/73 71/234/73 77/235/73
f 71/236/74 74/237/74 77/238/74
f 74/239/75 76/240/75 77/241/75
f 76/242/76 72/243/76 77/244/76